<svg width="105" height="34" viewBox="0 0 105 34" fill="none" xmlns="http://www.w3.org/2000/svg">
<path d="M10.8864 4.09876C10.8864 1.99225 9.89427 0.268555 6.30775 0.268555H5.85962C3.92226 0.268555 1.82496 0.380595 0 0.587439V11.2801H2.8819V8.40728C3.92226 8.56744 5.02747 8.56744 6.18023 8.56744H6.62836C9.95839 8.56744 10.8864 6.84374 10.8864 4.73724V4.09876ZM5.73137 6.01421C4.73928 6.01421 3.87399 5.9977 2.8819 5.87057V2.96614C3.93811 2.87062 5.17084 2.8225 5.84377 2.8225C8.00519 2.8225 8.00519 3.47679 8.00519 4.41836C8.00519 5.34413 8.00519 6.01421 5.73137 6.01421ZM23.8866 11.2808V10.6423L21.901 7.51383C23.2778 6.92347 23.7259 5.75853 23.7259 4.41764V3.77915C23.7259 1.84789 22.7338 0.268555 19.1473 0.268555H18.6992C16.7618 0.268555 14.6645 0.380595 12.8396 0.587439V11.2801H15.7215V7.7688C16.746 7.92824 17.8188 7.92824 18.9557 7.92824L21.1012 11.2801H23.8866V11.2808ZM18.7316 2.8225C20.8289 2.8225 20.8448 3.34895 20.8448 3.92351C20.8448 4.929 20.7965 5.37573 18.2352 5.37573C17.6912 5.37573 16.7143 5.35921 15.7222 5.23209V2.96542C16.7784 2.8699 17.9953 2.82178 18.7323 2.82178L18.7316 2.8225ZM25.6316 6.34962C25.6316 9.23825 26.9284 11.6004 31.587 11.6004H32.1634C36.822 11.6004 38.1189 9.23825 38.1189 6.34962V5.51937C38.1189 2.63074 36.822 0.269273 32.1634 0.269273H31.587C26.9284 0.269273 25.6316 2.63074 25.6316 5.51937V6.34962ZM28.5128 5.93449C28.5128 4.32212 28.5128 2.8383 31.8752 2.8383C35.237 2.8383 35.2369 4.32284 35.2369 5.93449C35.2369 7.56267 35.237 9.04649 31.8752 9.04649C28.5128 9.04649 28.5128 7.56195 28.5128 5.93449ZM54.6242 11.2808V8.7276H47.2437V0.588157H44.3618V11.2808H54.6235H54.6242ZM66.7916 0.588157H56.5298V11.2808H66.7916V8.7276H59.411V7.29119H65.1899V4.73796H59.411V3.1421H66.7916V0.588875V0.588157ZM78.1585 0.588157L74.5403 8.7276L70.922 0.588157H68.3291V1.22664L73.1 11.2808H75.9819L80.7529 1.22664V0.588157H78.1592H78.1585ZM92.6948 0.588157H82.4331V11.2808H92.6948V8.7276H85.3142V7.29119H91.0932V4.73796H85.3142V3.1421H92.6948V0.588875V0.588157ZM104.862 11.2808V8.7276H97.4816V0.588157H94.5997V11.2808H104.861H104.862Z" fill="#212A34"/>
<path d="M8.47926 29.6451C5.8661 29.6451 2.76662 29.2365 0 28.6238V32.9137C2.43376 33.4243 4.99505 33.731 7.6853 33.731H8.60751C15.14 33.731 17.0356 31.1261 17.0356 28.2152V27.8834C17.0356 22.8523 11.1436 22.6735 8.70981 22.6225C5.81567 22.5457 4.68813 22.3668 4.68813 21.1416C4.68813 20.5541 4.94461 19.7116 8.65866 19.7116C11.1695 19.7116 13.6033 20.0693 16.0882 20.6568V16.443C13.9873 15.9065 11.7336 15.6006 9.40219 15.6006H8.47998C1.97266 15.6006 0.0770907 18.2055 0.0770907 21.1423V21.4741C0.0770907 26.4541 5.76379 26.6323 8.37695 26.7091C11.3489 26.786 12.4246 26.9641 12.4246 28.1642C12.4246 28.8027 12.1429 29.6459 8.47998 29.6459L8.47926 29.6451ZM20.3656 16.1105V33.2204H24.9767V26.8362H28.128L33.5078 33.2204H38.0165V32.1991L31.6886 24.6658L38.0165 17.1325V16.1112H33.5078L27.9234 22.7511H24.9774V16.1112H20.3664L20.3656 16.1105ZM40.8343 16.1105V33.2204H45.4454V16.1105H40.8343ZM65.4529 33.2204V29.1345H53.6429V16.1105H49.0319V33.2204H65.4529ZM84.9223 33.2204V29.1345H73.1123V16.1105H68.5013V33.2204H84.9223ZM96.3223 29.6451C93.7092 29.6451 90.6097 29.2365 87.8431 28.6238V32.9137C90.2769 33.4243 92.8381 33.731 95.5284 33.731H96.4506C102.983 33.731 104.879 31.1261 104.879 28.2152V27.8834C104.879 22.8523 98.9867 22.6735 96.5529 22.6225C93.6588 22.5457 92.5312 22.3668 92.5312 21.1416C92.5312 20.5541 92.7877 19.7116 96.5017 19.7116C99.0126 19.7116 101.446 20.0693 103.931 20.6568V16.443C101.83 15.9065 99.5767 15.6006 97.2453 15.6006H96.3231C89.8158 15.6006 87.9202 18.2055 87.9202 21.1423V21.4741C87.9202 26.4541 93.6069 26.6323 96.22 26.7091C99.192 26.786 100.268 26.9641 100.268 28.1642C100.268 28.8027 99.986 29.6459 96.3231 29.6459L96.3223 29.6451Z" fill="#FAB706"/>
</svg>
