<svg width="36" height="36" viewBox="0 0 36 36" fill="none" xmlns="http://www.w3.org/2000/svg">
<g clip-path="url(#clip0_4807_2652)">
<path d="M18.0096 35.9807C27.9454 35.9807 36 27.9261 36 17.9903C36 8.05455 27.9454 0 18.0096 0C8.07384 0 0.0192871 8.05455 0.0192871 17.9903C0.0192871 27.9261 8.07384 35.9807 18.0096 35.9807Z" fill="url(#paint0_linear_4807_2652)"/>
<path d="M26.9873 10.5485C27.1474 9.51339 26.1633 8.69641 25.243 9.10049L6.91289 17.1483C6.25292 17.4381 6.30119 18.4379 6.98569 18.6558L10.7658 19.8596C11.4873 20.0894 12.2685 19.9705 12.8985 19.5353L21.421 13.6473C21.6781 13.4697 21.9582 13.8352 21.7386 14.0615L15.6039 20.3863C15.0088 20.9999 15.1269 22.0397 15.8428 22.4885L22.7112 26.7957C23.4816 27.2787 24.4726 26.7935 24.6166 25.8625L26.9873 10.5485Z" fill="white"/>
</g>
<defs>
<linearGradient id="paint0_linear_4807_2652" x1="18.0096" y1="0" x2="18.0096" y2="35.9807" gradientUnits="userSpaceOnUse">
<stop stop-color="#37BBFE"/>
<stop offset="1" stop-color="#007DBB"/>
</linearGradient>
<clipPath id="clip0_4807_2652">
<rect width="35.9807" height="35.9807" fill="white" transform="translate(0.0192871)"/>
</clipPath>
</defs>
</svg>
