<svg width="66" height="66" viewBox="0 0 66 66" fill="none" xmlns="http://www.w3.org/2000/svg">
<path d="M38.0039 8.14374L38.8985 7.24921L38.5279 6.87869H38.0039V8.14374ZM51.5768 21.7166H52.8419V21.1926L52.4713 20.8221L51.5768 21.7166ZM12.3077 21.7166C12.3077 22.4153 12.874 22.9817 13.5727 22.9817C14.2714 22.9817 14.8378 22.4153 14.8378 21.7166H13.5727H12.3077ZM19.0019 8.14374V6.87869V8.14374ZM32.5748 55.7411C31.8761 55.7411 31.3097 56.3075 31.3097 57.0062C31.3097 57.7048 31.8761 58.2712 32.5748 58.2712V57.0062V55.7411ZM8.14355 38.0041H6.87851H8.14355ZM13.4271 46.5114C13.6279 45.8422 13.2481 45.1369 12.5789 44.9362C11.9097 44.7354 11.2045 45.1151 11.0037 45.7843L12.2154 46.1479L13.4271 46.5114ZM8.14355 59.7207L6.93186 59.3572C6.78684 59.8406 6.94302 60.364 7.32926 60.6889C7.7155 61.0137 8.25789 61.0779 8.7093 60.8522L8.14355 59.7207ZM16.2873 55.6489L16.853 54.5174C16.4969 54.3393 16.0777 54.3393 15.7215 54.5174L16.2873 55.6489ZM24.431 59.7207L23.8653 60.8522C24.3167 61.0779 24.8591 61.0137 25.2453 60.6889C25.6316 60.364 25.7877 59.8406 25.6427 59.3572L24.431 59.7207ZM21.5709 45.7843C21.3701 45.1151 20.6649 44.7354 19.9957 44.9362C19.3265 45.1369 18.9467 45.8422 19.1475 46.5114L20.3592 46.1479L21.5709 45.7843ZM38.0039 8.14374H36.7389V19.0021H38.0039H39.269V8.14374H38.0039ZM38.0039 19.0021H36.7389C36.7389 20.0575 37.1582 21.0698 37.9045 21.8161L38.799 20.9216L39.6935 20.027C39.4217 19.7552 39.269 19.3865 39.269 19.0021H38.0039ZM38.799 20.9216L37.9045 21.8161C38.6508 22.5624 39.663 22.9817 40.7185 22.9817V21.7166V20.4516C40.3341 20.4516 39.9654 20.2989 39.6935 20.027L38.799 20.9216ZM40.7185 21.7166V22.9817H51.5768V21.7166V20.4516H40.7185V21.7166ZM13.5727 21.7166H14.8378V13.5729H13.5727H12.3077V21.7166H13.5727ZM13.5727 13.5729H14.8378C14.8378 12.4685 15.2765 11.4093 16.0574 10.6284L15.1629 9.7339L14.2684 8.83938C13.0129 10.0948 12.3077 11.7975 12.3077 13.5729H13.5727ZM15.1629 9.7339L16.0574 10.6284C16.8383 9.8475 17.8975 9.40878 19.0019 9.40878V8.14374V6.87869C17.2265 6.87869 15.5238 7.58397 14.2684 8.83938L15.1629 9.7339ZM19.0019 8.14374V9.40878H38.0039V8.14374V6.87869H19.0019V8.14374ZM38.0039 8.14374L37.1094 9.03826L50.6823 22.6112L51.5768 21.7166L52.4713 20.8221L38.8985 7.24921L38.0039 8.14374ZM51.5768 21.7166H50.3118V51.577H51.5768H52.8419V21.7166H51.5768ZM51.5768 51.577H50.3118C50.3118 52.6814 49.8731 53.7406 49.0921 54.5215L49.9867 55.416L50.8812 56.3105C52.1366 55.0551 52.8419 53.3524 52.8419 51.577H51.5768ZM49.9867 55.416L49.0921 54.5215C48.3112 55.3024 47.2521 55.7411 46.1477 55.7411V57.0062V58.2712C47.9231 58.2712 49.6258 57.5659 50.8812 56.3105L49.9867 55.416ZM46.1477 57.0062V55.7411H32.5748V57.0062V58.2712H46.1477V57.0062ZM8.14355 38.0041H6.87851C6.87851 40.4995 7.86979 42.8926 9.63428 44.6571L10.5288 43.7626L11.4233 42.8681C10.1333 41.5781 9.4086 39.8285 9.4086 38.0041H8.14355ZM10.5288 43.7626L9.63428 44.6571C11.3988 46.4216 13.7919 47.4129 16.2873 47.4129V46.1479V44.8828C14.4629 44.8828 12.7133 44.1581 11.4233 42.8681L10.5288 43.7626ZM16.2873 46.1479V47.4129C18.7827 47.4129 21.1758 46.4216 22.9403 44.6571L22.0458 43.7626L21.1513 42.8681C19.8613 44.1581 18.1116 44.8828 16.2873 44.8828V46.1479ZM22.0458 43.7626L22.9403 44.6571C24.7048 42.8926 25.6961 40.4995 25.6961 38.0041H24.431H23.166C23.166 39.8285 22.4413 41.5781 21.1513 42.8681L22.0458 43.7626ZM24.431 38.0041H25.6961C25.6961 35.5087 24.7048 33.1156 22.9403 31.3511L22.0458 32.2456L21.1513 33.1401C22.4413 34.4301 23.166 36.1798 23.166 38.0041H24.431ZM22.0458 32.2456L22.9403 31.3511C21.1758 29.5866 18.7827 28.5953 16.2873 28.5953V29.8604V31.1254C18.1116 31.1254 19.8613 31.8501 21.1513 33.1401L22.0458 32.2456ZM16.2873 29.8604V28.5953C13.7919 28.5953 11.3988 29.5866 9.63428 31.3511L10.5288 32.2456L11.4233 33.1401C12.7133 31.8501 14.4629 31.1254 16.2873 31.1254V29.8604ZM10.5288 32.2456L9.63428 31.3511C7.86979 33.1156 6.87851 35.5087 6.87851 38.0041H8.14355H9.4086C9.4086 36.1798 10.1333 34.4301 11.4233 33.1401L10.5288 32.2456ZM12.2154 46.1479L11.0037 45.7843L6.93186 59.3572L8.14355 59.7207L9.35525 60.0843L13.4271 46.5114L12.2154 46.1479ZM8.14355 59.7207L8.7093 60.8522L16.853 56.7804L16.2873 55.6489L15.7215 54.5174L7.57781 58.5893L8.14355 59.7207ZM16.2873 55.6489L15.7215 56.7804L23.8653 60.8522L24.431 59.7207L24.9968 58.5893L16.853 54.5174L16.2873 55.6489ZM24.431 59.7207L25.6427 59.3572L21.5709 45.7843L20.3592 46.1479L19.1475 46.5114L23.2193 60.0843L24.431 59.7207Z" fill="#0F5853"/>
</svg>
