<svg width="195" height="32" viewBox="0 0 195 32" fill="none" xmlns="http://www.w3.org/2000/svg">
<g clip-path="url(#clip0_2227_511)">
<path d="M169.566 20.0035V30.8845H175.667V20.1456C175.667 16.0916 177.245 14.7402 180.037 14.7402H182.188V9.33487H179.539C173.152 9.33487 169.566 13.2468 169.566 20.0035Z" fill="#171B27"/>
<path d="M83.4707 20.0035V30.8845H89.5683V20.1456C89.5683 16.0916 91.1469 14.7402 93.9447 14.7402H96.0933V9.33487H93.4427C87.0574 9.33487 83.4707 13.2468 83.4707 20.0035Z" fill="#171B27"/>
<path d="M184.56 7.6994C184.56 6.91719 184.636 4.07251 187.142 2.43708C188.863 1.44088 190.66 1.44089 192.525 1.44089H194.896V6.20601H193.529C192.592 6.20601 191.664 6.27708 191.158 7.2013C190.804 7.69942 190.804 7.98446 190.804 8.90872V9.61994H194.896V14.5271H190.804V26.9019C190.804 26.9019 190.661 30.8845 187.285 30.8845H184.56C184.56 30.8845 184.493 8.33954 184.56 7.6994Z" fill="#171B27"/>
<path d="M10.5058 25.3364C11.3664 25.3364 12.2279 25.4075 13.0885 25.3364C14.452 25.2654 15.5994 25.123 16.4609 23.9851C17.1781 23.0605 17.178 22.1362 17.178 21.7091C17.178 19.2914 15.3843 18.4383 14.5237 18.2953C13.8773 18.1532 12.5865 18.1532 11.0078 18.1532H6.70317V24.4829C6.70317 24.4829 6.77487 25.3363 7.56412 25.3363L10.5058 25.3364ZM10.2907 12.8909C12.5865 12.8909 14.0925 12.962 15.0257 12.5348C15.5994 12.2508 16.6044 11.5395 16.6044 9.83215C16.6044 8.19673 15.456 7.48552 14.8823 7.34347C14.0207 6.98741 12.945 6.98746 11.0078 6.98746H6.70317V12.8909H10.2907ZM10.0038 1.44007C11.5815 1.44007 13.2319 1.36902 14.8106 1.51111C15.8863 1.65321 19.1153 1.86715 21.4828 4.3558C22.6303 5.6361 23.2049 7.12947 23.2049 8.9079C23.2049 10.0452 22.9898 12.6769 20.4062 14.3843C19.8325 14.8105 19.5456 14.8814 18.9719 15.0955C19.9759 15.5216 20.5496 15.9487 20.9091 16.2328C22.1282 17.015 23.9937 18.8644 23.9937 22.3494C23.9937 23.2029 23.8503 25.2653 22.5585 27.1856C19.7607 31.1683 14.7389 30.8838 13.5188 30.8838C12.0845 30.8838 10.7209 30.8838 9.35771 30.8838H4.3356C0.246052 30.8838 0.102539 26.6877 0.102539 26.6877V1.44007H10.0038Z" fill="#171B27"/>
<path d="M49.9658 9.5489H56.2078V30.8845H49.9658V9.5489Z" fill="#171B27"/>
<path d="M125.659 20.2865C125.659 22.9892 126.443 24.4117 127.304 25.3362C128.097 26.2607 129.025 26.6162 130.249 26.6162C131.473 26.6162 132.333 26.1896 132.687 25.9051C133.978 24.9806 134.838 23.2738 134.838 20.0735C134.838 19.5754 134.982 16.5176 133.05 14.8812C132.62 14.5261 131.759 13.9569 130.392 13.9569C128.097 14.028 125.659 15.5923 125.659 20.2865ZM141.015 1.43983V30.8835H134.838C134.838 30.8124 134.838 29.3188 134.982 28.3943C134.484 29.3899 134.054 29.8167 133.624 30.1724C131.97 31.5947 129.531 31.5947 128.958 31.5947C128.308 31.5947 126.586 31.5948 124.942 30.8124C122.504 29.6034 119.415 26.6163 119.415 20.4286C119.415 19.6464 119.491 17.6548 120.209 15.5923C121.566 11.6103 124.722 8.90766 129.101 8.90766C131.472 8.90766 133.05 9.76087 133.834 10.33C134.265 10.7561 134.484 11.1122 134.628 11.3253V5.28071C134.628 5.28071 134.551 1.43983 138.644 1.43983H141.015Z" fill="#171B27"/>
<path d="M40.9977 17.6553C40.9977 17.5132 40.9977 17.1582 40.8543 16.7311C40.424 14.8106 38.7019 13.6734 36.7647 13.6734C34.7557 13.6734 33.177 14.8107 32.4599 16.6601C32.3165 17.0872 32.2448 17.5843 32.1731 17.7264L40.9977 17.6553ZM32.2447 22.0654C32.2447 23.0608 32.5316 23.8432 33.1053 24.6966C34.3254 26.6168 36.2626 26.7591 37.0515 26.7591C39.3473 26.7591 40.2805 25.55 40.8542 24.7677H47.2396C44.8721 31.2396 39.1322 31.7375 36.7647 31.7375C34.8274 31.6664 33.3922 31.3107 32.675 31.0263C28.1551 29.3905 25.8594 25.1233 25.8594 20.5001C25.8594 19.2918 26.0028 15.7358 28.2986 12.7481C29.447 11.2547 32.0296 8.83711 36.8363 8.83711C37.5535 8.83711 39.3473 8.90814 41.2845 9.69031C43.4369 10.6146 46.1629 12.7481 47.1679 17.8694C47.2396 18.4385 47.5265 19.7889 47.5265 21.3542C47.5265 21.5673 47.5265 21.8514 47.4548 22.0654H32.2447Z" fill="#171B27"/>
<path d="M74.4307 17.6553C74.4307 17.5132 74.4308 17.1582 74.2873 16.7311C73.8571 14.8106 72.1349 13.6734 70.1977 13.6734C68.1897 13.6734 66.5394 14.8107 65.893 16.6601C65.7496 17.0872 65.6062 17.5843 65.6062 17.7264L74.4307 17.6553ZM65.6061 22.0654C65.6778 23.0608 65.9657 23.8432 66.4677 24.6966C67.7585 26.6168 69.624 26.7591 70.4138 26.7591C72.7096 26.7591 73.7136 25.55 74.2156 24.7677H80.601C78.3052 31.2396 72.5662 31.7375 70.1977 31.7375C68.1897 31.6664 66.8262 31.3107 66.109 31.0263C61.5165 29.3905 59.2207 25.1233 59.2207 20.5001C59.2207 19.2918 59.3641 15.7358 61.7326 12.7481C62.88 11.2547 65.4627 8.83711 70.1977 8.83711C70.9875 8.83711 72.7813 8.90814 74.6469 9.69031C76.7992 10.6146 79.597 12.7481 80.5293 17.8694C80.601 18.4385 80.8878 19.7889 80.8878 21.3542C80.8878 21.5673 80.8878 21.8514 80.8161 22.0654H65.6061Z" fill="#171B27"/>
<path d="M111.02 15.9483C110.953 15.5212 110.809 15.2372 110.589 14.8811C110.159 14.0989 109.088 13.3877 107.214 13.3877C106.64 13.3877 106.21 13.4588 106.067 13.4588C104.709 13.8148 104.202 14.668 104.202 15.3081C104.202 16.0193 104.852 16.3754 105.063 16.4464C105.35 16.6595 106.43 16.8726 107.501 17.1576L109.805 17.5838L111.813 18.0108C113.965 18.58 115.753 19.2201 116.757 21.3536C116.9 21.7798 117.331 22.8469 117.331 24.1271C117.331 24.8383 117.264 26.5451 116.04 28.252C114.825 30.1012 112.454 31.5947 107.721 31.5947C103.055 31.5947 100.693 30.1723 99.3256 28.5365C98.685 27.6831 97.8244 26.474 97.6045 23.9849H103.561C103.561 24.1982 103.628 24.9094 104.059 25.5494C104.565 26.2606 105.78 27.043 107.864 27.043C108.084 27.043 108.581 27.043 109.155 26.9007C109.375 26.8297 111.096 26.4028 111.096 24.9093C111.096 23.4159 109.729 23.2025 107.434 22.7046C103.418 21.7798 101.41 21.3537 99.8993 20.0023C98.3216 18.58 98.2547 16.6595 98.2547 15.9483C98.2547 14.0989 98.9718 12.8905 99.3256 12.2503C100.55 10.4719 102.768 8.90755 107.291 8.90755C108.295 8.90755 112.741 8.83654 115.323 11.9654C116.69 13.6017 116.833 15.1661 116.833 15.9483H111.02Z" fill="#171B27"/>
<path d="M150.262 20.2865C150.262 25.1228 152.997 26.6162 155.358 26.6162C155.722 26.6162 156.726 26.5452 157.653 26.1185C159.088 25.3361 160.455 23.6294 160.455 20.0735C160.455 19.7174 160.455 18.3661 160.025 17.1577C159.661 16.0195 158.59 13.8149 155.358 13.8149C152.997 13.8859 150.262 15.2372 150.262 20.2865ZM162.97 11.3963C165.551 13.5299 166.766 16.9437 166.766 20.1445C166.766 24.9095 164.117 29.4611 159.451 31.0258C158.59 31.3102 157.299 31.5947 155.291 31.5947C154.498 31.5947 152.71 31.5947 150.692 30.8835C146.246 29.1766 143.951 24.9094 143.951 20.2865C143.951 16.1615 145.749 13.5299 146.82 12.2505C148.187 10.8992 150.836 8.90766 155.502 8.90766C156.726 8.9787 160.092 9.04977 162.97 11.3963Z" fill="#171B27"/>
<path d="M56.7098 3.43235C56.7098 5.2818 55.0594 6.77513 53.0514 6.77513C51.1142 6.77513 49.4639 5.2818 49.4639 3.43235C49.4639 1.51189 51.1142 0.0895705 53.0514 0.0895705C55.0594 0.0895705 56.7098 1.51189 56.7098 3.43235Z" fill="#171B27"/>
</g>
<defs>
<clipPath id="clip0_2227_511">
<rect width="195" height="31.8087" fill="white"/>
</clipPath>
</defs>
</svg>
