<svg width="298" height="282" viewBox="0 0 298 282" fill="none" xmlns="http://www.w3.org/2000/svg">
<g clip-path="url(#clip0_3081_5950)">
<path d="M127.253 0H5.36999C2.55349 0 0.270264 2.293 0.270264 5.12156V94.4928C0.270264 97.3213 2.55349 99.6143 5.36999 99.6143H127.253C130.07 99.6143 132.353 97.3213 132.353 94.4928V5.12156C132.353 2.293 130.07 0 127.253 0Z" fill="#F2F6FB"/>
<path d="M20.1297 91.864C13.5272 91.864 8.1748 86.4333 8.1748 79.7342C8.1748 73.0352 13.5272 67.6045 20.1297 67.6045C26.7322 67.6045 32.0846 73.0352 32.0846 79.7342C32.0846 86.4333 26.7322 91.864 20.1297 91.864ZM20.1558 79.6834C21.038 79.6834 21.7532 78.9671 21.7532 78.0835C21.7532 77.1999 21.038 76.4837 20.1558 76.4837C19.2737 76.4837 18.5585 77.1999 18.5585 78.0835C18.5585 78.9671 19.2737 79.6834 20.1558 79.6834ZM20.1558 80.4833C18.5569 80.4833 17.2607 81.7815 17.2607 83.383H23.051C23.051 81.7815 21.7548 80.4833 20.1558 80.4833Z" fill="#E1E5F0"/>
<path d="M8.17484 21.5123C8.17484 20.9456 8.62959 20.4862 9.19449 20.4862H93.6029C94.1661 20.4862 94.6226 20.9448 94.6226 21.5123V58.1938C94.6226 58.7605 94.1678 59.2199 93.6029 59.2199H9.19449C8.63135 59.2199 8.17484 58.7613 8.17484 58.1938V21.5123ZM40.1504 77.475H107.145C108.188 77.475 109.033 78.3235 109.033 79.3702V80.3931C109.033 81.4398 108.188 82.2884 107.145 82.2884H40.1504C39.1081 82.2884 38.2632 81.4398 38.2632 80.3931V79.3702C38.2632 78.3235 39.1081 77.475 40.1504 77.475ZM40.1504 85.2967H119.14C120.182 85.2967 121.027 86.1453 121.027 87.192V88.2148C121.027 89.2616 120.182 90.1101 119.14 90.1101H40.1504C39.1081 90.1101 38.2632 89.2616 38.2632 88.2148V87.192C38.2632 86.1453 39.1081 85.2967 40.1504 85.2967ZM40.1504 69.6532H90.3527C91.3949 69.6532 92.2399 70.5018 92.2399 71.5485V72.5713C92.2399 73.6181 91.3949 74.4666 90.3527 74.4666H40.1504C39.1081 74.4666 38.2632 73.6181 38.2632 72.5713V71.5485C38.2632 70.5018 39.1081 69.6532 40.1504 69.6532ZM0.270264 5.12268C0.270264 2.2935 2.55329 0 5.37193 0H127.506C130.324 0 132.608 2.29371 132.608 5.12268V11.2674H0.270264V5.12268Z" fill="#E1E5F0"/>
<path d="M104.838 50.7466H120.428C121.303 50.7466 122.059 50.9249 122.683 51.2596C123.306 51.5944 123.795 52.0857 124.128 52.7116C124.462 53.3376 124.639 54.0974 124.639 54.9762V54.9899C124.639 55.8687 124.462 56.6285 124.128 57.2545C123.795 57.8805 123.306 58.3717 122.683 58.7065C122.059 59.0413 121.303 59.2196 120.428 59.2196H104.838C103.963 59.2196 103.206 59.0413 102.583 58.7065C101.959 58.3717 101.47 57.8805 101.137 57.2545C100.803 56.6285 100.626 55.8687 100.626 54.9899V54.9762C100.626 54.0974 100.803 53.3376 101.137 52.7116C101.47 52.0857 101.959 51.5944 102.583 51.2596C103.206 50.9249 103.963 50.7466 104.838 50.7466Z" fill="#E1E5F0"/>
<path d="M7.792 8.19458C9.12984 8.19458 10.2144 7.10541 10.2144 5.76184C10.2144 4.41828 9.12984 3.3291 7.792 3.3291C6.45416 3.3291 5.36963 4.41828 5.36963 5.76184C5.36963 7.10541 6.45416 8.19458 7.792 8.19458Z" fill="#FAB706"/>
<path d="M15.697 8.19458C17.0349 8.19458 18.1194 7.10541 18.1194 5.76184C18.1194 4.41828 17.0349 3.3291 15.697 3.3291C14.3592 3.3291 13.2747 4.41828 13.2747 5.76184C13.2747 7.10541 14.3592 8.19458 15.697 8.19458Z" fill="#FFC855"/>
<path d="M23.8565 8.19458C25.1943 8.19458 26.2788 7.10541 26.2788 5.76184C26.2788 4.41828 25.1943 3.3291 23.8565 3.3291C22.5186 3.3291 21.4341 4.41828 21.4341 5.76184C21.4341 7.10541 22.5186 8.19458 23.8565 8.19458Z" fill="#FAB706"/>
</g>
<path d="M289.855 141.114H188.984C185.023 141.114 181.788 138.189 181.788 134.609V74.5394C181.788 70.9586 185.023 68.0342 188.984 68.0342H289.855C293.816 68.0342 297.051 70.9586 297.051 74.5394V134.579C297.051 138.189 293.816 141.114 289.855 141.114Z" fill="#F2F6FB"/>
<path d="M181.821 67.6406C181.821 64.0036 184.777 61.0552 188.423 61.0552H290.415C294.062 61.0552 297.017 64.0053 297.017 67.6406V75.2102H181.821V67.6406Z" fill="#E1E5F0"/>
<path d="M199.563 101.875H212.271C213.319 101.875 214.169 102.722 214.169 103.768C214.169 104.813 213.319 105.66 212.271 105.66H199.563C198.515 105.66 197.665 104.813 197.665 103.768C197.665 102.722 198.515 101.875 199.563 101.875ZM199.563 122.943H212.271C213.319 122.943 214.169 123.79 214.169 124.836C214.169 125.881 213.319 126.729 212.271 126.729H199.563C198.515 126.729 197.665 125.881 197.665 124.836C197.665 123.79 198.515 122.943 199.563 122.943ZM219.037 101.875H231.745C232.794 101.875 233.643 102.722 233.643 103.768C233.643 104.813 232.794 105.66 231.745 105.66H219.037C217.989 105.66 217.14 104.813 217.14 103.768C217.14 102.722 217.989 101.875 219.037 101.875ZM219.037 122.943H231.745C232.794 122.943 233.643 123.79 233.643 124.836C233.643 125.881 232.794 126.729 231.745 126.729H219.037C217.989 126.729 217.14 125.881 217.14 124.836C217.14 123.79 217.989 122.943 219.037 122.943ZM238.512 101.875H251.22C252.268 101.875 253.118 102.722 253.118 103.768C253.118 104.813 252.268 105.66 251.22 105.66H238.512C237.464 105.66 236.614 104.813 236.614 103.768C236.614 102.722 237.464 101.875 238.512 101.875ZM238.512 122.943H251.22C252.268 122.943 253.118 123.79 253.118 124.836C253.118 125.881 252.268 126.729 251.22 126.729H238.512C237.464 126.729 236.614 125.881 236.614 124.836C236.614 123.79 237.464 122.943 238.512 122.943ZM199.563 91.3408H223.163C224.212 91.3408 225.061 92.1883 225.061 93.2337C225.061 94.279 224.212 95.1265 223.163 95.1265H199.563C198.515 95.1265 197.665 94.279 197.665 93.2337C197.665 92.1883 198.515 91.3408 199.563 91.3408ZM253.035 91.3408H279.607C280.655 91.3408 281.504 92.1883 281.504 93.2337C281.504 94.279 280.655 95.1265 279.607 95.1265H253.035C251.987 95.1265 251.137 94.279 251.137 93.2337C251.137 92.1883 251.987 91.3408 253.035 91.3408ZM253.035 112.409H279.607C280.655 112.409 281.504 113.256 281.504 114.302C281.504 115.347 280.655 116.195 279.607 116.195H253.035C251.987 116.195 251.137 115.347 251.137 114.302C251.137 113.256 251.987 112.409 253.035 112.409ZM229.93 112.409H234.716C235.764 112.409 236.614 113.256 236.614 114.302C236.614 115.347 235.764 116.195 234.716 116.195H229.93C228.882 116.195 228.032 115.347 228.032 114.302C228.032 113.256 228.882 112.409 229.93 112.409ZM241.483 91.3408H246.269C247.317 91.3408 248.167 92.1883 248.167 93.2337C248.167 94.279 247.317 95.1265 246.269 95.1265H241.483C240.434 95.1265 239.585 94.279 239.585 93.2337C239.585 92.1883 240.434 91.3408 241.483 91.3408ZM257.987 101.875H279.607C280.655 101.875 281.504 102.722 281.504 103.768C281.504 104.813 280.655 105.66 279.607 105.66H257.987C256.938 105.66 256.089 104.813 256.089 103.768C256.089 102.722 256.938 101.875 257.987 101.875Z" fill="#E1E5F0"/>
<path d="M199.563 112.408H223.163C224.212 112.408 225.061 113.256 225.061 114.301C225.061 115.346 224.212 116.194 223.163 116.194H199.563C198.515 116.194 197.665 115.346 197.665 114.301C197.665 113.256 198.515 112.408 199.563 112.408ZM241.483 112.408H246.269C247.317 112.408 248.167 113.256 248.167 114.301C248.167 115.346 247.317 116.194 246.269 116.194H241.483C240.434 116.194 239.585 115.346 239.585 114.301C239.585 113.256 240.434 112.408 241.483 112.408Z" fill="#E8A844"/>
<path d="M229.93 91.3408H234.716C235.764 91.3408 236.614 92.1883 236.614 93.2337C236.614 94.279 235.764 95.1265 234.716 95.1265H229.93C228.881 95.1265 228.032 94.279 228.032 93.2337C228.032 92.1883 228.881 91.3408 229.93 91.3408ZM257.986 122.943H279.606C280.654 122.943 281.504 123.79 281.504 124.836C281.504 125.881 280.654 126.729 279.606 126.729H257.986C256.938 126.729 256.088 125.881 256.088 124.836C256.088 123.79 256.938 122.943 257.986 122.943Z" fill="#FFC855"/>
<path d="M289.977 96.1946L273.031 85.0459C272.805 85.2068 272.805 85.2068 272.602 85.3907L278.936 104.861C278.936 104.861 281.425 104.516 283.348 103.413L286.221 107.182C287.358 106.537 288.161 106.03 288.63 105.662C289.099 105.293 289.692 104.705 290.407 103.895L287.534 100.102C288.348 98.7921 289.163 97.4819 289.977 96.1946Z" fill="#FFC855"/>
<path d="M197.218 216.875H217.751C218.373 216.875 218.919 216.322 218.919 215.658V215.52C218.919 214.856 218.373 214.303 217.699 214.303H198.672C187.147 214.303 175.622 214.303 164.123 214.303H146.472C145.849 214.303 145.304 214.856 145.304 215.52V215.658C145.304 216.322 145.823 216.875 146.472 216.875H171.521L164.616 230.372C159.71 239.997 154.804 249.595 149.872 259.22L141.748 275.096C141.462 275.649 141.696 276.368 142.241 276.7L142.345 276.755C142.89 277.059 143.591 276.893 143.85 276.368L174.246 216.875H194.493L224.889 276.368C225.148 276.893 225.849 277.087 226.394 276.755L226.498 276.7C227.043 276.368 227.277 275.649 226.991 275.096L218.867 259.22C213.961 249.595 209.055 239.997 204.123 230.372L197.218 216.875ZM218.841 206.037V189.955C218.841 177.69 218.841 165.453 218.841 153.217V138.602C218.841 136.311 217.097 134.454 214.947 134.454H172.585C170.435 134.454 168.691 136.311 168.691 138.602V206.084C168.691 208.375 170.435 210.233 172.585 210.233C172.586 210.233 172.588 210.233 172.589 210.233L214.951 210.185C217.1 210.183 218.841 208.326 218.841 206.037Z" fill="#E1E5F0"/>
<path d="M149.232 204.781C154.175 204.603 158.078 200.451 157.949 195.507C157.82 190.562 153.708 186.698 148.765 186.876L111.862 188.206C106.919 188.384 103.017 192.536 103.146 197.481C103.275 202.425 107.386 206.289 112.329 206.111L149.232 204.781Z" fill="#B8BBC0"/>
<path d="M158.162 195.499C158.294 200.561 154.298 204.812 149.238 204.995L112.335 206.324C107.274 206.506 103.065 202.55 102.933 197.488C102.801 192.426 106.796 188.175 111.857 187.993L148.76 186.663C153.82 186.481 158.03 190.437 158.162 195.499Z" stroke="#B8BBC0" stroke-width="0.426454"/>
<path d="M138.639 261.267C136.488 257.311 137.952 252.361 141.907 250.21C145.79 248.099 150.648 249.467 152.86 253.293L158.316 262.733C161.27 267.843 158.092 274.316 152.242 275.105C148.831 275.564 145.491 273.87 143.847 270.846L138.639 261.267Z" fill="#FDBA90" stroke="#FDBA90" stroke-width="0.426454"/>
<path d="M162.197 266.106C161.921 265.504 161.321 265.116 160.659 265.112L139.342 264.965C138.708 264.961 138.124 265.309 137.825 265.868L135.693 269.863C135.554 270.124 135.349 270.344 135.099 270.502L128.303 274.793C126.862 275.703 127.499 277.931 129.203 277.941L165.063 278.159C166.311 278.166 167.144 276.875 166.623 275.741L162.197 266.106Z" fill="#474961"/>
<path d="M121.427 193.442C118.871 188.826 113.066 187.144 108.438 189.676C103.845 192.19 102.118 197.923 104.559 202.555L134.577 259.525L158.024 259.525L121.427 193.442Z" fill="#B8BBC0"/>
<path d="M134.577 259.738L134.448 259.738L134.388 259.624L104.37 202.655C101.875 197.92 103.641 192.059 108.336 189.489C113.067 186.9 119.001 188.62 121.614 193.339L158.211 259.422L158.386 259.738L158.024 259.738L134.577 259.738Z" stroke="#B8BBC0" stroke-width="0.426454"/>
<path d="M105.121 201.602C102.513 197.539 103.692 192.131 107.755 189.522C111.818 186.914 117.226 188.093 119.835 192.156C122.443 196.219 121.264 201.627 117.201 204.235C113.138 206.844 107.73 205.665 105.121 201.602Z" fill="#B8BBC0" stroke="#B8BBC0" stroke-width="0.426454"/>
<line y1="-0.106613" x2="12.7246" y2="-0.106613" transform="matrix(0.993411 -0.114608 -0.114608 -0.993411 144.548 196.865)" stroke="#00F9EA" stroke-opacity="0.28" stroke-width="0.213227" stroke-dasharray="0.43 0.43"/>
<line y1="-0.106613" x2="12.3348" y2="-0.106613" transform="matrix(-0.114608 -0.993411 -0.993411 0.114608 151.575 202.262)" stroke="#00F9EA" stroke-opacity="0.28" stroke-width="0.213227" stroke-dasharray="0.43 0.43"/>
<rect x="-0.11813" y="-0.0936921" width="12.5114" height="12.4849" rx="6.24244" transform="matrix(-0.114608 -0.993411 -0.993411 0.114608 157.716 201.721)" stroke="#00F9EA" stroke-opacity="0.28" stroke-width="0.213227"/>
<path d="M176.587 186.375C183.998 185.574 190.512 191.423 190.512 198.88C190.512 205.995 184.853 211.767 177.734 211.911L138.504 212.704C132.448 212.827 127.373 208.056 127.122 202.004C126.883 196.231 131.133 191.292 136.873 190.671L176.587 186.375Z" fill="#B8BBC0"/>
<path d="M190.725 198.882C190.725 191.298 184.1 185.348 176.562 186.163L136.848 190.459C130.997 191.092 126.666 196.126 126.909 202.011C127.165 208.179 132.338 213.042 138.51 212.918L177.741 212.124C184.974 211.978 190.725 206.113 190.725 198.882Z" stroke="#B8BBC0" stroke-width="0.426454"/>
<path d="M96.0626 275.916L106.158 256.561L91.0394 250.932L77.3506 270.336L96.0626 275.916Z" fill="#FDBA90" stroke="#FDBA90" stroke-width="0.426454"/>
<path d="M104.079 266.17C104.538 265.049 103.715 263.82 102.504 263.818L78.4723 263.771C78.2218 263.771 77.9742 263.826 77.7472 263.932L67.0567 268.924C66.9657 268.966 66.8786 269.017 66.7964 269.074L58.8556 274.665C57.4952 275.623 58.1706 277.763 59.8343 277.766L98.1501 277.84C98.8436 277.841 99.4689 277.422 99.7318 276.781L104.079 266.17Z" fill="#474961"/>
<path d="M126.205 197.177C129.661 192.491 136.249 191.469 140.962 194.888C145.794 198.395 146.779 205.198 143.139 209.93L104.922 259.625L80.157 259.625L126.205 197.177Z" fill="#B8BBC0"/>
<path d="M126.205 197.177C129.661 192.491 136.249 191.469 140.962 194.888C145.794 198.395 146.779 205.198 143.139 209.93L104.922 259.625L80.157 259.625L126.205 197.177Z" stroke="#B8BBC0" stroke-width="0.426454"/>
<path d="M141.496 206.234C144.598 202.534 144.113 197.02 140.413 193.918C136.713 190.816 131.199 191.301 128.097 195.001C124.995 198.701 125.48 204.215 129.18 207.317C132.88 210.419 138.394 209.934 141.496 206.234Z" fill="#B8BBC0" stroke="#B8BBC0" stroke-width="0.426454"/>
<path d="M141.553 170.036C141.553 164.384 146.136 159.801 151.788 159.801H172.494C178.146 159.801 182.729 164.384 182.729 170.036V199.575H141.553V170.036Z" fill="#B8BBC0"/>
<path d="M182.729 199.788H182.942V199.575V170.036C182.942 164.266 178.264 159.588 172.494 159.588H151.788C146.018 159.588 141.34 164.266 141.34 170.036V199.575V199.788H141.553H182.729Z" stroke="#B8BBC0" stroke-width="0.426454"/>
<line x1="162.19" y1="187.227" x2="162.19" y2="180.927" stroke="#00F9EA" stroke-opacity="0.28" stroke-width="0.213227" stroke-dasharray="0.43 0.43"/>
<line x1="159.353" y1="183.971" x2="165.242" y2="183.971" stroke="#00F9EA" stroke-opacity="0.28" stroke-width="0.213227" stroke-dasharray="0.43 0.43"/>
<rect x="159.273" y="181.033" width="5.86203" height="6.0741" rx="2.93101" stroke="#00F9EA" stroke-opacity="0.28" stroke-width="0.213227"/>
<path d="M135.723 131.989L143.016 185.489H182.801L191.012 130.541C191.216 129.175 190.3 127.894 188.942 127.646L163.506 122.997C163.15 122.932 162.783 122.943 162.432 123.03L137.644 129.16C136.375 129.474 135.546 130.694 135.723 131.989Z" fill="#FAB706"/>
<path d="M142.804 185.518L142.829 185.702H143.016H182.801H182.985L183.012 185.521L191.223 130.572C191.444 129.093 190.452 127.705 188.98 127.436L163.544 122.787C163.158 122.716 162.762 122.729 162.38 122.823L137.593 128.953C136.218 129.293 135.32 130.615 135.512 132.018L142.804 185.518Z" stroke="#FAB706" stroke-width="0.426454"/>
<path d="M141.695 129.421C145.487 131.349 147.082 136.002 145.257 139.812C143.432 143.622 138.878 145.147 135.086 143.218L106.543 128.7C102.75 126.772 101.155 122.119 102.98 118.309C104.805 114.499 109.359 112.974 113.152 114.903L141.695 129.421Z" fill="#FDBA90"/>
<path d="M141.603 129.612C145.29 131.487 146.841 136.011 145.066 139.715C143.292 143.419 138.864 144.902 135.177 143.026L106.634 128.509C102.947 126.634 101.397 122.11 103.171 118.406C104.945 114.702 109.373 113.219 113.06 115.095L141.603 129.612Z" stroke="#FDBA90" stroke-width="0.426454"/>
<mask id="mask0_3081_5950" style="mask-type:alpha" maskUnits="userSpaceOnUse" x="102" y="114" width="45" height="31">
<path d="M141.603 129.613C145.29 131.488 146.841 136.011 145.066 139.715C143.292 143.419 138.864 144.902 135.177 143.027L106.634 128.509C102.947 126.634 101.397 122.111 103.171 118.407C104.945 114.703 109.373 113.22 113.06 115.095L141.603 129.613Z" fill="#F8DAC3" stroke="#F8DAC3" stroke-width="0.426454"/>
</mask>
<g mask="url(#mask0_3081_5950)">
<path d="M146.517 140.267C148.56 136.041 146.933 130.972 142.884 128.944L124.871 119.798L119.173 135.812L135.486 144.248C139.536 146.275 144.475 144.493 146.517 140.267Z" fill="#ED9D63"/>
</g>
<path d="M143.901 128.883L143.898 128.882L126.817 120.654L126.624 120.562L126.535 120.753L119.501 135.765L119.413 135.954L119.6 136.049L136.317 144.569L136.319 144.569C140.651 146.738 145.861 144.985 147.955 140.654C150.049 136.322 148.234 131.052 143.901 128.883Z" fill="#FAB706" stroke="#FAB706" stroke-width="0.426454"/>
<path d="M132.61 92.356L142.127 104.796L115.463 125.38C112.406 127.74 108.03 127.116 105.629 123.977C103.228 120.839 103.687 116.345 106.662 113.878L132.61 92.356Z" fill="#FDBA90"/>
<path d="M106.784 114.031L132.581 92.6337L141.857 104.757L115.346 125.222C112.372 127.518 108.115 126.911 105.778 123.858C103.442 120.804 103.889 116.432 106.784 114.031Z" stroke="#FDBA90" stroke-width="0.387242"/>
<circle cx="7.24048" cy="7.24048" r="7.04686" transform="matrix(-0.702106 -0.721991 0.686282 -0.71777 109.822 131.121)" fill="#FDBA90" stroke="#FDBA90" stroke-width="0.387242"/>
<path d="M129.104 94.6216C126.782 98.3672 127.19 101.634 130.795 105.061C134.399 108.488 137.531 108.357 142.184 104.996C145.608 102.523 149.864 98.9863 150.731 96.3352C151.079 95.2701 150.976 93.8615 150.103 93.4403C149.229 93.0192 148.605 93.8388 147.996 94.8466C147.308 95.9857 146.125 97.2948 145.167 96.8101C144.601 96.5243 144.403 95.2963 144.826 94.5254C145.52 93.2605 146.27 92.345 147.309 91.2607C148.019 90.5187 148.671 89.8695 149.144 89.4059C149.381 89.1743 149.572 88.9896 149.704 88.8634L149.893 88.6836C150.742 87.8141 150.702 86.7331 150.088 86.0465C148.91 84.7286 147.709 85.8142 147.544 85.9752C147.752 85.7668 147.917 85.6035 148.03 85.492C148.089 85.4346 148.163 85.3621 148.163 85.3621C148.805 84.7436 148.754 83.8887 148.17 83.2311C147.585 82.5735 146.653 82.6004 146.139 82.8964C145.625 83.1924 145.011 83.784 145.011 83.784C143.994 82.2781 142.619 82.4005 141.947 82.8469C141.275 83.2932 140.522 83.9884 139.583 85.0039C139.443 85.1562 139.347 85.2626 139.226 85.3975C139.175 85.1256 139.049 84.8632 138.849 84.6443C138.296 84.0404 137.563 84.1937 136.908 84.6912C136.252 85.1888 134.212 87.2211 133.142 88.6513C132.073 90.0816 131.425 90.876 129.104 94.6216Z" fill="#FDBA90"/>
<path d="M139.226 85.3975C139.175 85.1257 139.049 84.8632 138.849 84.6443C138.296 84.0404 137.563 84.1937 136.908 84.6912C136.252 85.1888 134.212 87.2211 133.142 88.6513C132.073 90.0816 131.425 90.876 129.104 94.6216C126.782 98.3672 127.19 101.634 130.795 105.061C134.399 108.488 137.531 108.357 142.184 104.996C145.608 102.523 149.864 98.9863 150.731 96.3352C151.079 95.2701 150.976 93.8615 150.103 93.4403C149.229 93.0192 148.605 93.8388 147.996 94.8466C147.308 95.9857 146.125 97.2948 145.167 96.8101C144.601 96.5243 144.403 95.2963 144.826 94.5254C145.52 93.2605 146.27 92.345 147.309 91.2607C148.019 90.5187 148.671 89.8695 149.144 89.4059C149.381 89.1743 149.572 88.9896 149.704 88.8634L149.893 88.6836C150.742 87.8141 150.702 86.7331 150.088 86.0465C148.82 84.6278 147.525 85.9944 147.525 85.9944M139.226 85.3975C139.347 85.2626 139.443 85.1562 139.583 85.0039C140.522 83.9884 141.275 83.2932 141.947 82.8469C142.619 82.4005 143.994 82.2781 145.011 83.784M139.226 85.3975C138.238 86.4716 136.497 88.4531 136.135 89.053M145.011 83.784C145.011 83.784 143.362 85.3487 143.153 85.5581M145.011 83.784C145.011 83.784 143.881 84.874 143.153 85.5581M145.011 83.784C145.011 83.784 145.625 83.1924 146.139 82.8964C146.653 82.6004 147.585 82.5735 148.17 83.2311C148.754 83.8887 148.805 84.7436 148.163 85.3621C148.163 85.3621 148.089 85.4346 148.03 85.492C147.913 85.6069 147.741 85.7768 147.525 85.9944M143.153 85.5581C141.735 87.0005 140.827 88.0222 139.543 89.5923M147.525 85.9944C147.091 86.4297 146.479 87.0543 145.769 87.808C145.769 87.808 143.59 90.1708 142.445 91.554M147.525 85.9944C147.525 85.9944 147.353 86.1712 147.283 86.2379C147.144 86.3712 146.987 86.5507 146.741 86.7913C146.25 87.2721 144.865 88.7818 144.865 88.7818" stroke="#FDBA90" stroke-width="0.387242" stroke-linecap="round" stroke-linejoin="round"/>
<path d="M139.046 85.2725C138.073 86.1846 136.145 88.1793 136.22 88.8609M144.682 84.084C142.998 85.4779 139.524 88.6638 139.094 90.2565M141.439 92.7955C142.47 91.3029 145.208 87.8061 147.913 85.7601" stroke="#ED9D63" stroke-width="0.387242" stroke-linecap="round" stroke-linejoin="round"/>
<path d="M136.236 140.904L141.759 181.688" stroke="white" stroke-width="0.426454" stroke-linecap="round" stroke-linejoin="round"/>
<path d="M194.844 136.193C193.853 132.07 189.701 129.496 185.569 130.443C181.438 131.39 178.891 135.5 179.881 139.623L187.333 170.651C188.323 174.774 192.475 177.348 196.607 176.401C200.739 175.454 203.286 171.344 202.296 167.221L194.844 136.193Z" fill="#FDBA90"/>
<path d="M194.636 136.24C193.673 132.232 189.636 129.729 185.619 130.65C181.602 131.571 179.126 135.567 180.089 139.575L187.541 170.603C188.503 174.612 192.54 177.114 196.557 176.194C200.574 175.273 203.05 171.277 202.088 167.269L194.636 136.24Z" stroke="#FDBA90" stroke-width="0.426454"/>
<mask id="mask1_3081_5950" style="mask-type:alpha" maskUnits="userSpaceOnUse" x="179" y="130" width="24" height="47">
<path d="M194.636 136.24C193.673 132.232 189.636 129.729 185.619 130.65C181.602 131.571 179.126 135.567 180.089 139.575L187.541 170.603C188.503 174.612 192.54 177.114 196.557 176.194C200.574 175.273 203.05 171.277 202.088 167.269L194.636 136.24Z" fill="#F8DAC3" stroke="#F8DAC3" stroke-width="0.426454"/>
</mask>
<g mask="url(#mask1_3081_5950)">
<path d="M185.418 129.54C190.005 128.471 194.592 131.324 195.663 135.912L200.227 153.267L182.763 156.793L179.051 139.781C177.98 135.193 180.831 130.608 185.418 129.54Z" fill="#ED9D63"/>
</g>
<path d="M200.193 150.935L200.141 150.733L195.881 134.155C194.783 129.454 190.082 126.531 185.381 127.626C180.679 128.721 177.758 133.421 178.855 138.123L200.193 150.935ZM200.193 150.935L199.992 150.991L183.145 155.709L182.93 155.769L182.88 155.551L178.855 138.123L200.193 150.935Z" fill="#FAB706" stroke="#FAB706" stroke-width="0.426454"/>
<path d="M155.875 172.103L156.786 186.757L195.28 182.66C198.875 182.278 201.485 179.026 201.082 175.432C200.698 172.012 197.715 169.506 194.283 169.719L155.875 172.103Z" fill="#FDBA90"/>
<path d="M194.295 169.932L156.101 172.303L156.985 186.522L195.259 182.448C198.736 182.078 201.26 178.933 200.87 175.457C200.499 172.15 197.614 169.726 194.295 169.932Z" stroke="#FDBA90" stroke-width="0.426454"/>
<circle cx="7.97365" cy="7.97365" r="7.76042" transform="matrix(0.0381195 -0.999258 -0.999176 -0.0409944 203.031 183.008)" fill="#FDBA90" stroke="#FDBA90" stroke-width="0.426454"/>
<path d="M155.523 172.419C159.23 172.4 160.338 174.343 160.818 177.278C161.298 180.214 160.594 184.206 156.536 185.574C152.188 187.04 142.651 185.478 139.766 185.202C138.607 185.091 136.961 184.791 137.205 184.175C136.776 184.341 133.636 183.921 133.636 183.921C132.094 183.939 131.009 183.448 130.845 182.902C130.549 181.921 132.322 181.681 132.785 181.635C132.444 181.638 131.971 181.439 131.971 181.439C130.992 181.623 130.442 180.937 130.283 180.417C130.123 179.896 130.572 179.342 131.184 179.137C131.796 178.932 132.479 178.869 132.479 178.869C131.889 177.858 132.95 177.116 133.802 176.865C134.653 176.614 135.775 176.389 137.302 176.152C137.506 176.12 137.653 176.099 137.825 176.073L137.889 176.064C137.691 175.956 137.353 176.184 137.304 176.007C137.168 175.52 138.14 175.005 139.024 174.779C139.908 174.552 145.623 172.65 147.597 172.459C149.572 172.268 151.816 172.438 155.523 172.419Z" fill="#FDBA90"/>
<path d="M137.889 176.064C137.691 175.956 137.353 176.184 137.304 176.007C137.168 175.52 138.14 175.005 139.024 174.779C139.908 174.552 145.623 172.65 147.597 172.459C149.572 172.268 151.816 172.438 155.523 172.419C159.23 172.4 160.338 174.343 160.818 177.278C161.298 180.214 160.594 184.206 156.536 185.574C152.188 187.04 142.651 185.478 139.766 185.202C138.607 185.091 136.961 184.791 137.205 184.175C136.776 184.341 133.636 183.921 133.636 183.921C132.094 183.939 131.009 183.448 130.845 182.902C130.505 181.775 132.894 181.626 132.894 181.626M137.889 176.064C137.688 176.094 137.531 176.117 137.302 176.152C135.775 176.389 134.653 176.614 133.802 176.865C132.95 177.116 131.889 177.858 132.479 178.869M137.889 176.064C139.5 175.816 142.416 175.404 143.184 175.373M132.479 178.869C132.479 178.869 134.972 178.389 135.297 178.331M132.479 178.869C132.479 178.869 134.202 178.545 135.297 178.331M132.479 178.869C132.479 178.869 131.796 178.932 131.184 179.137C130.572 179.342 130.123 179.896 130.283 180.417C130.442 180.937 130.992 181.623 131.971 181.439C131.971 181.439 132.556 181.686 132.894 181.626M135.297 178.331C137.525 177.947 139.035 177.729 141.279 177.457M132.894 181.626C133.571 181.506 134.534 181.341 135.676 181.157C135.676 181.157 139.224 180.609 141.211 180.361M132.894 181.626C132.894 181.626 133.166 181.58 133.272 181.56C133.483 181.519 133.747 181.482 134.125 181.413C134.88 181.274 137.143 180.928 137.143 180.928" stroke="#FDBA90" stroke-width="0.426454" stroke-linecap="round" stroke-linejoin="round"/>
<path d="M149.133 172.09C154.829 171.613 157.977 172.975 160.922 173.711" stroke="#ED9D63" stroke-width="0.426454" stroke-linecap="round" stroke-linejoin="round"/>
<path d="M132.634 181.802C134.75 181.383 139.98 180.696 142.937 180.786" stroke="#ED9D63" stroke-width="0.426454" stroke-linecap="round" stroke-linejoin="round"/>
<path d="M133.274 178.854C135.689 177.937 141.465 177.098 144.829 177.438" stroke="#ED9D63" stroke-width="0.426454" stroke-linecap="round" stroke-linejoin="round"/>
<path d="M155.265 117.39C155.265 113.613 158.327 110.551 162.104 110.551C165.881 110.551 168.943 113.613 168.943 117.39V123.858C168.943 127.635 165.881 130.698 162.104 130.698C158.327 130.698 155.265 127.635 155.265 123.858V117.39Z" fill="#FDBA90"/>
<path d="M155.478 117.39C155.478 113.731 158.444 110.764 162.104 110.764C165.763 110.764 168.73 113.731 168.73 117.39V123.858C168.73 127.518 165.764 130.484 162.104 130.484C158.444 130.484 155.478 127.518 155.478 123.858V117.39Z" stroke="#FDBA90" stroke-width="0.426454"/>
<mask id="mask2_3081_5950" style="mask-type:alpha" maskUnits="userSpaceOnUse" x="155" y="111" width="14" height="21">
<path d="M155.477 118.669C155.477 115.01 158.444 112.043 162.104 112.043C165.763 112.043 168.73 115.01 168.73 118.669V125.137C168.73 128.797 165.763 131.764 162.104 131.764C158.444 131.764 155.477 128.797 155.477 125.137V118.669Z" fill="#F8DAC3" stroke="#F8DAC3" stroke-width="0.426454"/>
</mask>
<g mask="url(#mask2_3081_5950)">
<path d="M146.3 91.4346C146.3 83.7697 152.514 77.5562 160.179 77.5562C167.843 77.5562 174.057 83.7697 174.057 91.4345V107.018C174.057 114.683 167.843 120.897 160.179 120.897C152.514 120.897 146.3 114.683 146.3 107.018V91.4346Z" fill="#ED9D63"/>
</g>
<path d="M141.361 91.9469C141.382 92.0774 141.407 92.2057 141.437 92.3339C141.597 92.9914 141.854 93.6236 142.2 94.2114L142.219 94.2423C142.35 94.4635 142.491 94.6846 142.643 94.9058C143.047 95.4735 143.487 96.0163 143.962 96.5311L144.246 96.8341C144.437 97.0397 144.631 97.241 144.825 97.44C143.798 97.2189 142.804 98.1366 142.622 99.1273C142.44 100.118 142.853 101.118 143.363 102.002C144.255 103.568 145.542 104.609 146.674 105.969C147.523 106.982 147.993 108.181 148.918 109.149L148.987 109.222C151.43 111.681 155.286 112.256 158.496 113.307C159.649 113.687 164.877 119.937 171.312 117.567C172.745 117.039 173.378 116.509 174.921 115.091C180.456 110.051 182.394 100.921 179.1 94.2423C175.56 87.0554 168.012 81.4251 162.552 80.5871C157.093 79.7491 154.635 79.5212 152.366 80.5871C150.097 81.653 148.967 84.959 150.849 86.5733C149.665 85.7146 148.193 85.3044 146.713 85.4212C145.347 85.5032 144.059 86.0589 143.088 86.9846C142.319 87.7252 141.767 88.6463 141.485 89.6559C141.277 90.4028 141.234 91.1833 141.361 91.9469Z" fill="#482D1F"/>
<path d="M171.341 104.821C171.341 102.819 172.964 101.196 174.966 101.196C176.968 101.196 178.591 102.819 178.591 104.821C178.591 106.823 176.968 108.446 174.966 108.446C172.964 108.446 171.341 106.823 171.341 104.821Z" fill="#FDBA90" stroke="#FDBA90" stroke-width="0.426454"/>
<path d="M145.618 104.821C145.618 102.819 147.24 101.196 149.242 101.196C151.244 101.196 152.867 102.819 152.867 104.821C152.867 106.823 151.244 108.446 149.242 108.446C147.24 108.446 145.618 106.823 145.618 104.821Z" fill="#FDBA90" stroke="#FDBA90" stroke-width="0.426454"/>
<path d="M147.461 103.582C147.814 103.908 148.504 104.718 148.441 105.345" stroke="#474961" stroke-width="0.426454" stroke-linecap="round" stroke-linejoin="round"/>
<path d="M176.806 103.763C176.193 103.763 175.764 104.9 175.826 105.527" stroke="#474961" stroke-width="0.426454" stroke-linecap="round" stroke-linejoin="round"/>
<path d="M149.653 96.9778C149.653 88.3847 158.151 82.3746 166.253 85.2381C171.229 86.9966 174.556 91.7006 174.556 96.9778V107.711C174.556 114.588 168.981 120.163 162.104 120.163C155.228 120.163 149.653 114.588 149.653 107.711V96.9778Z" fill="#FDBA90"/>
<path d="M149.866 96.9778C149.866 88.5319 158.219 82.6247 166.182 85.4391C171.073 87.1675 174.342 91.791 174.342 96.9778V107.711C174.342 114.47 168.863 119.949 162.104 119.949C155.345 119.949 149.866 114.47 149.866 107.711V96.9778Z" stroke="#FDBA90" stroke-width="0.426454"/>
<mask id="mask3_3081_5950" style="mask-type:alpha" maskUnits="userSpaceOnUse" x="134" y="72" width="47" height="35">
<path d="M149.617 101.024C149.617 101.024 149.518 97.1857 149.8 96.0923C150.325 94.054 152.054 93.2717 152.491 92.6604C156.047 96.8577 164.27 100.984 170.963 99.4207C170.963 101.893 172.196 106.494 173.315 106.494C174.434 106.494 174.853 100.651 176.31 100.984C179.185 96.5878 184.785 89.3871 176.31 84.0525L177.007 83.0594L178.265 82.3074C177.231 81.1561 173.37 80.6203 172.328 82.1585C172.328 82.1585 170.511 77.1187 162.496 73.6562C153.221 69.6492 139.55 80.9883 139.55 80.9883L134.465 90.5733L145.387 104.735C145.387 104.735 145.221 102.742 147.381 101.454C148.385 100.856 149.617 101.024 149.617 101.024Z" fill="#D9D9D9"/>
</mask>
<g mask="url(#mask3_3081_5950)">
<path d="M141.292 91.3829C141.312 91.5162 141.338 91.6473 141.367 91.7783C141.526 92.4501 141.78 93.0961 142.124 93.6967L142.142 93.7283C142.272 93.9543 142.412 94.1802 142.562 94.4062C142.963 94.9863 143.399 95.541 143.87 96.067L144.151 96.3765C144.34 96.5867 144.532 96.7923 144.724 96.9957C143.707 96.7697 142.722 97.7074 142.542 98.7197C142.361 99.732 142.77 100.753 143.275 101.657C144.16 103.257 145.435 104.321 146.557 105.711C147.398 106.746 147.864 107.97 148.781 108.96L148.849 109.035C151.269 111.547 155.09 112.135 158.271 113.208C159.414 113.597 171.804 117.076 171.804 117.836C171.804 117.671 173.018 116.48 174.547 115.031C180.031 109.882 181.952 100.552 178.688 93.7283C175.18 86.3848 168.29 81.3464 162.291 79.7756C156.291 78.2047 154.446 78.6864 152.197 79.7756C149.948 80.8647 148.829 84.2427 150.693 85.8922C149.52 85.0148 148.062 84.5956 146.596 84.715C145.242 84.7988 143.965 85.3666 143.003 86.3125C142.242 87.0692 141.694 88.0104 141.415 89.042C141.209 89.8051 141.167 90.6027 141.292 91.3829Z" fill="#482D1F"/>
<path d="M141.234 91.1212C141.24 91.3498 141.236 91.5686 141.27 91.7058C141.368 92.4082 141.697 93.4123 141.844 93.6488C141.99 93.8854 142.373 94.5625 142.542 94.799C142.987 95.4093 143.638 96.1798 143.638 96.1798C143.638 96.1798 144.177 96.7925 144.393 97.0054C143.738 96.8773 142.607 97.8469 142.404 98.9068C142.201 99.9666 142.661 101.036 143.228 101.982C144.222 103.657 145.654 104.771 146.915 106.226C147.86 107.31 148.383 108.592 149.413 109.628C150.608 108.319 151.369 106.72 151.605 105.022C152.026 101.885 154.403 99.6283 154.519 96.4535C153.901 93.6808 152.655 92.9262 151.356 91.3104C150.312 90.1228 149.103 89.0659 147.762 88.1663C146.715 87.5299 145.367 87.4306 144.116 87.5938C143.027 87.7311 141.916 88.1586 141.546 88.6549C141.313 89.4528 141.21 90.1507 141.234 91.1212Z" fill="#482D1F"/>
</g>
<path d="M149.76 104.095C149.76 103.488 149.605 99.0223 149.605 97.8077C149.605 94.656 152.337 92.6475 152.337 92.6475" stroke="#474961" stroke-width="0.426454" stroke-linecap="round" stroke-linejoin="round"/>
<path d="M164.588 114.186C163.054 113.489 161.317 113.37 159.698 113.852" stroke="#474961" stroke-width="0.426454" stroke-linecap="round"/>
<path d="M160.491 104.85C159.28 106.132 159.095 110.556 159.095 110.556H161.35" stroke="#474961" stroke-width="0.426454" stroke-linecap="round" stroke-linejoin="round"/>
<path d="M170.229 100.983C168.058 101.43 165.824 101.493 163.631 101.17" stroke="#474961" stroke-width="0.426454" stroke-linecap="round"/>
<path d="M158.37 100.983C156.198 101.43 153.965 101.493 151.772 101.17" stroke="#474961" stroke-width="0.426454" stroke-linecap="round"/>
<path d="M166.524 103.064C165.093 103.064 165.093 106.034 166.524 106.05H166.589C168.022 106.05 168.022 103.08 166.589 103.064H166.526H166.524Z" fill="#474961"/>
<path d="M155.013 103.064C153.582 103.082 153.582 106.033 155.013 106.05H155.078C156.509 106.05 156.509 103.082 155.078 103.064H155.013Z" fill="#474961"/>
<path d="M148.988 128.284L153.438 139.561L162.191 134.305L170.483 139.561L174.934 125.944" stroke="#F2F6FB" stroke-width="0.426454" stroke-linecap="round" stroke-linejoin="round"/>
<path d="M82.0171 258.575L128.328 192.784C129.683 190.677 133.902 188.661 139.066 189.135" stroke="white" stroke-width="0.426454" stroke-linecap="round" stroke-linejoin="round"/>
<path d="M142.021 212.911L118.015 245.936" stroke="white" stroke-width="0.426454" stroke-linecap="round" stroke-linejoin="round"/>
<path d="M179.769 143.887L183.787 155.437L193.243 152.369" stroke="#F2F6FB" stroke-width="0.426454" stroke-linecap="round" stroke-linejoin="round"/>
<path d="M21.918 186.492V279.759C21.918 280.767 21.0262 281.585 19.9261 281.585C18.8261 281.585 17.9343 280.767 17.9343 279.759L17.9343 184.796C17.9343 183.917 18.6114 183.183 19.5133 183.009C19.7684 182.9 20.053 182.839 20.353 182.839L216.564 182.839C217.664 182.839 218.555 183.657 218.555 184.666C218.555 185.674 217.664 186.492 216.564 186.492H21.918Z" fill="#E1E5F0"/>
<g clip-path="url(#clip1_3081_5950)">
<path d="M70.6006 178.712L73.5812 166.778H51.2064C48.8819 166.778 46.9598 165.025 46.9598 162.903V129.103C46.9292 126.95 48.8199 125.197 51.1755 125.197H119.27C121.595 125.197 123.516 126.95 123.516 129.072V162.903C123.516 165.025 121.595 166.778 119.27 166.778H92.0026L90.7722 178.712H98.8452C100.085 178.712 101.046 179.696 101.046 180.896C101.046 182.126 100.054 183.079 98.8452 183.079H64.2865C63.0467 183.079 62.0859 182.095 62.0859 180.896C62.0239 179.696 63.0467 178.712 64.2865 178.712H70.6006Z" fill="#B8BBC0"/>
<path fill-rule="evenodd" clip-rule="evenodd" d="M92.9267 158.081L93.0186 178.743H90.7964L92.9267 158.081Z" fill="white"/>
</g>
<path d="M134.63 54.5928H103.122C100.338 54.5928 98.0806 56.8506 98.0806 59.6358V75.5212C98.0806 78.3063 100.338 80.5642 103.122 80.5642H134.63L140.208 82.3C141.023 82.5534 141.788 81.7912 141.538 80.976L139.672 74.8976V59.6358C139.672 56.8506 137.415 54.5928 134.63 54.5928Z" fill="#FAB706"/>
<path d="M109.458 67.5137C109.458 68.0192 109.379 68.4853 109.222 68.9121C109.064 69.3388 108.836 69.7055 108.538 70.0121C108.24 70.3187 107.884 70.5549 107.469 70.7206C107.055 70.8822 106.589 70.963 106.071 70.963C105.557 70.963 105.095 70.8801 104.685 70.7144C104.275 70.5487 103.918 70.3125 103.616 70.0059C103.318 69.6951 103.09 69.3305 102.932 68.9121C102.779 68.4894 102.702 68.0233 102.702 67.5137C102.702 66.9999 102.781 66.5297 102.939 66.1029C103.096 65.6762 103.322 65.3115 103.616 65.0091C103.91 64.7066 104.266 64.4746 104.685 64.313C105.103 64.1473 105.565 64.0644 106.071 64.0644C106.585 64.0644 107.051 64.1473 107.469 64.313C107.888 64.4787 108.246 64.7149 108.544 65.0215C108.843 65.3281 109.068 65.6927 109.222 66.1153C109.379 66.538 109.458 67.0041 109.458 67.5137ZM107.755 67.5137C107.755 66.8218 107.602 66.2831 107.295 65.8978C106.993 65.5125 106.585 65.3198 106.071 65.3198C105.739 65.3198 105.447 65.4068 105.195 65.5809C104.942 65.7507 104.747 66.0035 104.61 66.3391C104.474 66.6747 104.405 67.0662 104.405 67.5137C104.405 67.957 104.472 68.3444 104.604 68.6759C104.741 69.0074 104.933 69.2622 105.182 69.4403C105.435 69.6144 105.731 69.7014 106.071 69.7014C106.585 69.7014 106.993 69.5087 107.295 69.1234C107.602 68.7339 107.755 68.1973 107.755 67.5137ZM117.152 67.5137C117.152 68.0192 117.073 68.4853 116.916 68.9121C116.758 69.3388 116.531 69.7055 116.232 70.0121C115.934 70.3187 115.578 70.5549 115.163 70.7206C114.749 70.8822 114.283 70.963 113.765 70.963C113.251 70.963 112.789 70.8801 112.379 70.7144C111.969 70.5487 111.612 70.3125 111.31 70.0059C111.012 69.6951 110.784 69.3305 110.626 68.9121C110.473 68.4894 110.396 68.0233 110.396 67.5137C110.396 66.9999 110.475 66.5297 110.633 66.1029C110.79 65.6762 111.016 65.3115 111.31 65.0091C111.604 64.7066 111.961 64.4746 112.379 64.313C112.797 64.1473 113.259 64.0644 113.765 64.0644C114.279 64.0644 114.745 64.1473 115.163 64.313C115.582 64.4787 115.94 64.7149 116.238 65.0215C116.537 65.3281 116.763 65.6927 116.916 66.1153C117.073 66.538 117.152 67.0041 117.152 67.5137ZM115.449 67.5137C115.449 66.8218 115.296 66.2831 114.989 65.8978C114.687 65.5125 114.279 65.3198 113.765 65.3198C113.433 65.3198 113.141 65.4068 112.889 65.5809C112.636 65.7507 112.441 66.0035 112.304 66.3391C112.168 66.6747 112.099 67.0662 112.099 67.5137C112.099 67.957 112.166 68.3444 112.298 68.6759C112.435 69.0074 112.628 69.2622 112.876 69.4403C113.129 69.6144 113.425 69.7014 113.765 69.7014C114.279 69.7014 114.687 69.5087 114.989 69.1234C115.296 68.7339 115.449 68.1973 115.449 67.5137ZM120.061 65.0153V65.2204C120.38 64.8268 120.711 64.5388 121.055 64.3565C121.399 64.1701 121.788 64.0768 122.223 64.0768C122.745 64.0768 123.226 64.2115 123.665 64.4808C124.104 64.7501 124.45 65.1437 124.703 65.6617C124.96 66.1796 125.089 66.7928 125.089 67.5013C125.089 68.0233 125.014 68.504 124.865 68.9431C124.72 69.3782 124.519 69.7449 124.262 70.0432C124.005 70.3374 123.701 70.5652 123.348 70.7268C123 70.8843 122.625 70.963 122.223 70.963C121.739 70.963 121.331 70.8656 120.999 70.6709C120.672 70.4762 120.359 70.1903 120.061 69.8132V72.3613C120.061 73.1071 119.789 73.48 119.246 73.48C118.927 73.48 118.716 73.3827 118.613 73.1879C118.509 72.9973 118.457 72.7177 118.457 72.3489V65.0277C118.457 64.7046 118.528 64.4642 118.668 64.3068C118.809 64.1452 119.002 64.0644 119.246 64.0644C119.487 64.0644 119.682 64.1473 119.831 64.313C119.984 64.4746 120.061 64.7087 120.061 65.0153ZM123.386 67.4826C123.386 67.0352 123.317 66.6519 123.181 66.3329C123.044 66.0097 122.853 65.7632 122.609 65.5933C122.368 65.4193 122.101 65.3323 121.807 65.3323C121.339 65.3323 120.943 65.5166 120.62 65.8854C120.301 66.2541 120.141 66.7969 120.141 67.5137C120.141 68.1891 120.301 68.7153 120.62 69.0923C120.939 69.4652 121.335 69.6516 121.807 69.6516C122.089 69.6516 122.35 69.5708 122.59 69.4093C122.83 69.2435 123.023 68.997 123.168 68.6697C123.313 68.3424 123.386 67.9467 123.386 67.4826ZM131.913 68.7443C131.913 69.2125 131.799 69.6144 131.571 69.95C131.343 70.2814 131.005 70.5342 130.558 70.7082C130.114 70.8781 129.574 70.963 128.936 70.963C128.326 70.963 127.804 70.8698 127.369 70.6833C126.934 70.4969 126.613 70.2648 126.406 69.9872C126.199 69.7055 126.095 69.4238 126.095 69.142C126.095 68.9556 126.162 68.7961 126.294 68.6635C126.427 68.5309 126.595 68.4646 126.798 68.4646C126.976 68.4646 127.113 68.5081 127.208 68.5951C127.303 68.6821 127.394 68.8043 127.481 68.9618C127.655 69.2642 127.862 69.4901 128.103 69.6392C128.347 69.7884 128.679 69.8629 129.097 69.8629C129.437 69.8629 129.714 69.7884 129.93 69.6392C130.15 69.4859 130.259 69.3119 130.259 69.1172C130.259 68.8188 130.145 68.6013 129.918 68.4646C129.694 68.3279 129.323 68.1973 128.805 68.073C128.221 67.928 127.744 67.7768 127.376 67.6194C127.011 67.4578 126.719 67.2465 126.499 66.9854C126.28 66.7244 126.17 66.4033 126.17 66.0221C126.17 65.6824 126.271 65.3613 126.474 65.0588C126.677 64.7563 126.976 64.516 127.369 64.3379C127.767 64.1556 128.246 64.0644 128.805 64.0644C129.244 64.0644 129.638 64.11 129.986 64.2011C130.338 64.2923 130.63 64.4145 130.862 64.5678C131.098 64.7211 131.277 64.891 131.397 65.0775C131.521 65.2639 131.583 65.4462 131.583 65.6244C131.583 65.8191 131.517 65.9786 131.384 66.1029C131.256 66.2272 131.071 66.2894 130.831 66.2894C130.657 66.2894 130.508 66.2396 130.384 66.1402C130.263 66.0408 130.125 65.8916 129.967 65.6927C129.839 65.527 129.688 65.3944 129.514 65.295C129.34 65.1955 129.103 65.1458 128.805 65.1458C128.498 65.1458 128.244 65.2121 128.041 65.3447C127.838 65.4731 127.736 65.6347 127.736 65.8295C127.736 66.0076 127.811 66.1547 127.96 66.2707C128.109 66.3826 128.31 66.4758 128.563 66.5504C128.815 66.625 129.163 66.7161 129.607 66.8238C130.133 66.9523 130.562 67.1056 130.893 67.2838C131.229 67.4619 131.482 67.6732 131.651 67.9177C131.825 68.158 131.913 68.4335 131.913 68.7443ZM133.907 66.8611L133.709 63.8842C133.671 63.3041 133.653 62.8877 133.653 62.635C133.653 62.2911 133.742 62.0239 133.92 61.8333C134.102 61.6385 134.34 61.5412 134.635 61.5412C134.991 61.5412 135.229 61.6655 135.349 61.9141C135.47 62.1585 135.53 62.5128 135.53 62.9768C135.53 63.2503 135.515 63.5279 135.486 63.8096L135.219 66.8736C135.19 67.2382 135.128 67.5178 135.032 67.7126C134.937 67.9073 134.78 68.0047 134.56 68.0047C134.336 68.0047 134.181 67.9115 134.094 67.725C134.007 67.5344 133.945 67.2465 133.907 66.8611ZM134.597 70.9506C134.345 70.9506 134.123 70.8698 133.932 70.7082C133.746 70.5424 133.653 70.3125 133.653 70.0183C133.653 69.7614 133.742 69.5439 133.92 69.3658C134.102 69.1834 134.324 69.0923 134.585 69.0923C134.846 69.0923 135.068 69.1834 135.25 69.3658C135.436 69.5439 135.53 69.7614 135.53 70.0183C135.53 70.3084 135.436 70.5362 135.25 70.702C135.063 70.8677 134.846 70.9506 134.597 70.9506Z" fill="white"/>
<defs>
<clipPath id="clip0_3081_5950">
<rect width="132.338" height="99.6143" fill="white" transform="translate(0.270508)"/>
</clipPath>
<clipPath id="clip1_3081_5950">
<rect width="109.72" height="81.8089" fill="white" transform="translate(30.5322 101.516)"/>
</clipPath>
</defs>
</svg>
