<svg width="24" height="24" viewBox="0 0 24 24" fill="none" xmlns="http://www.w3.org/2000/svg">
<path d="M4.25933 10.1463C3.98688 12.2303 3.82139 14.348 3.76853 16.4936C6.66451 17.7027 9.41893 19.1831 12 20.9032C14.5811 19.1831 17.3355 17.7027 20.2315 16.4936C20.1786 14.348 20.0131 12.2303 19.7407 10.1463M4.25933 10.1463C3.38362 9.85193 2.49729 9.58071 1.60107 9.33333C4.84646 7.0585 8.32741 5.09683 12 3.49219C15.6727 5.09683 19.1536 7.05851 22.399 9.33334C21.5028 9.58073 20.6164 9.85196 19.7407 10.1463M4.25933 10.1463C6.94656 11.0495 9.5338 12.1705 12.0001 13.4883C14.4663 12.1705 17.0535 11.0496 19.7407 10.1463M6.75 14.9996C7.16421 14.9996 7.5 14.6638 7.5 14.2496C7.5 13.8354 7.16421 13.4996 6.75 13.4996C6.33579 13.4996 6 13.8354 6 14.2496C6 14.6638 6.33579 14.9996 6.75 14.9996ZM6.75 14.9996V11.3241C8.44147 10.2731 10.1936 9.31058 12 8.44293M4.99264 19.9923C6.16421 18.8207 6.75 17.2852 6.75 15.7496V14.2496" stroke="#212A34" stroke-width="1.5" stroke-linecap="round" stroke-linejoin="round"/>
</svg>
