<svg xmlns="http://www.w3.org/2000/svg" width="15" height="12" viewBox="0 0 15 12" fill="none">
  <mask id="path-1-inside-1_4833_1769" fill="white">
  <path fill-rule="evenodd" clip-rule="evenodd" d="M14.5732 1.05743C14.77 1.25433 14.8806 1.52135 14.8806 1.79978C14.8806 2.0782 14.77 2.34522 14.5732 2.54213L6.17317 10.9421C5.97627 11.139 5.70925 11.2496 5.43082 11.2496C5.1524 11.2496 4.88538 11.139 4.68847 10.9421L0.488473 6.74213C0.297207 6.54409 0.191373 6.27886 0.193765 6.00355C0.196158 5.72825 0.306585 5.46489 0.501264 5.27022C0.695942 5.07554 0.959295 4.96511 1.2346 4.96272C1.50991 4.96033 1.77514 5.06616 1.97317 5.25743L5.43082 8.71508L13.0885 1.05743C13.2854 0.860581 13.5524 0.75 13.8308 0.75C14.1092 0.75 14.3763 0.860581 14.5732 1.05743Z"></path>
  </mask>
  <path fill-rule="evenodd" clip-rule="evenodd" d="M14.5732 1.05743C14.77 1.25433 14.8806 1.52135 14.8806 1.79978C14.8806 2.0782 14.77 2.34522 14.5732 2.54213L6.17317 10.9421C5.97627 11.139 5.70925 11.2496 5.43082 11.2496C5.1524 11.2496 4.88538 11.139 4.68847 10.9421L0.488473 6.74213C0.297207 6.54409 0.191373 6.27886 0.193765 6.00355C0.196158 5.72825 0.306585 5.46489 0.501264 5.27022C0.695942 5.07554 0.959295 4.96511 1.2346 4.96272C1.50991 4.96033 1.77514 5.06616 1.97317 5.25743L5.43082 8.71508L13.0885 1.05743C13.2854 0.860581 13.5524 0.75 13.8308 0.75C14.1092 0.75 14.3763 0.860581 14.5732 1.05743Z" fill="#1F2A37"></path>
  <path d="M14.5732 1.05743L16.1644 -0.533324L16.1639 -0.533805L14.5732 1.05743ZM14.8806 1.79978L17.1306 1.79978L14.8806 1.79978ZM14.5732 2.54213L16.1642 4.13312L16.1644 4.13288L14.5732 2.54213ZM6.17317 10.9421L7.76392 12.5334L7.76416 12.5331L6.17317 10.9421ZM4.68847 10.9421L3.09748 12.5331L3.09772 12.5334L4.68847 10.9421ZM0.488473 6.74213L-1.12993 8.30523L-1.11634 8.31929L-1.10252 8.33312L0.488473 6.74213ZM1.97317 5.25743L3.56416 3.66644L3.55034 3.65261L3.53627 3.63903L1.97317 5.25743ZM5.43082 8.71508L3.83983 10.3061L5.43082 11.8971L7.02181 10.3061L5.43082 8.71508ZM13.0885 1.05743L11.4977 -0.533805L11.4975 -0.533564L13.0885 1.05743ZM13.8308 0.75L13.8308 3L13.8308 0.75ZM12.9819 2.64818C12.757 2.42314 12.6306 2.11797 12.6306 1.79978L17.1306 1.79978C17.1306 0.924738 16.7831 0.0855201 16.1644 -0.533324L12.9819 2.64818ZM12.6306 1.79978C12.6306 1.48158 12.757 1.17641 12.9819 0.951375L16.1644 4.13288C16.7831 3.51403 17.1306 2.67481 17.1306 1.79978L12.6306 1.79978ZM12.9822 0.951135L4.58218 9.35113L7.76416 12.5331L16.1642 4.13312L12.9822 0.951135ZM4.58242 9.35089C4.80746 9.12593 5.11263 8.99955 5.43082 8.99955V13.4996C6.30587 13.4996 7.14508 13.152 7.76392 12.5334L4.58242 9.35089ZM5.43082 8.99955C5.74902 8.99955 6.05419 9.12593 6.27922 9.35089L3.09772 12.5334C3.71656 13.152 4.55578 13.4996 5.43082 13.4996V8.99955ZM6.27946 9.35113L2.07946 5.15113L-1.10252 8.33312L3.09748 12.5331L6.27946 9.35113ZM2.10687 5.17902C2.32546 5.40535 2.44641 5.70847 2.44368 6.02311L-2.05615 5.984C-2.06367 6.84925 -1.73105 7.68284 -1.12993 8.30523L2.10687 5.17902ZM2.44368 6.02311C2.44095 6.33774 2.31474 6.63872 2.09225 6.86121L-1.08973 3.67923C-1.70157 4.29107 -2.04863 5.11875 -2.05615 5.984L2.44368 6.02311ZM2.09225 6.86121C1.86976 7.0837 1.56879 7.2099 1.25415 7.21263L1.21505 2.7128C0.349802 2.72032 -0.477879 3.06738 -1.08973 3.67923L2.09225 6.86121ZM1.25415 7.21263C0.939517 7.21537 0.636394 7.09441 0.410071 6.87582L3.53627 3.63903C2.91389 3.03791 2.0803 2.70528 1.21505 2.7128L1.25415 7.21263ZM0.382183 6.84842L3.83983 10.3061L7.02181 7.12409L3.56416 3.66644L0.382183 6.84842ZM7.02181 10.3061L14.6795 2.64842L11.4975 -0.533564L3.83983 7.12409L7.02181 10.3061ZM14.6792 2.64866C14.4542 2.87362 14.149 3 13.8308 3L13.8308 -1.5C12.9558 -1.5 12.1166 -1.15246 11.4977 -0.533805L14.6792 2.64866ZM13.8308 3C13.5126 3 13.2075 2.87362 12.9824 2.64866L16.1639 -0.533805C15.5451 -1.15246 14.7059 -1.5 13.8308 -1.5L13.8308 3Z" fill="white" mask="url(#path-1-inside-1_4833_1769)"></path>
</svg>