<svg width="318" height="37" viewBox="0 0 318 37" fill="none" xmlns="http://www.w3.org/2000/svg">
<path d="M10.9994 5.59876C10.9994 3.49225 10.0073 1.76855 6.42079 1.76855H5.97265C4.0353 1.76855 1.938 1.8806 0.113037 2.08744V12.7801H2.99493V9.90728C4.0353 10.0674 5.14051 10.0674 6.29326 10.0674H6.7414C10.0714 10.0674 10.9994 8.34374 10.9994 6.23724V5.59876ZM5.84441 7.51421C4.85232 7.51421 3.98703 7.4977 2.99493 7.37057V4.46614C4.05115 4.37062 5.28388 4.3225 5.9568 4.3225C8.11823 4.3225 8.11823 4.97679 8.11823 5.91836C8.11823 6.84413 8.11823 7.51421 5.84441 7.51421ZM23.9996 12.7808V12.1423L22.014 9.01383C23.3908 8.42347 23.839 7.25853 23.839 5.91764V5.27915C23.839 3.34789 22.8469 1.76855 19.2604 1.76855H18.8122C16.8749 1.76855 14.7776 1.8806 12.9526 2.08744V12.7801H15.8345V9.2688C16.859 9.42824 17.9318 9.42824 19.0687 9.42824L21.2143 12.7801H23.9996V12.7808ZM18.8446 4.3225C20.9419 4.3225 20.9578 4.84895 20.9578 5.42351C20.9578 6.429 20.9095 6.87573 18.3482 6.87573C17.8043 6.87573 16.8273 6.85921 15.8352 6.73209V4.46542C16.8914 4.3699 18.1083 4.32178 18.8454 4.32178L18.8446 4.3225ZM25.7446 7.84962C25.7446 10.7382 27.0415 13.1004 31.7001 13.1004H32.2764C36.935 13.1004 38.2319 10.7382 38.2319 7.84962V7.01937C38.2319 4.13074 36.935 1.76927 32.2764 1.76927H31.7001C27.0415 1.76927 25.7446 4.13074 25.7446 7.01937V7.84962ZM28.6258 7.43449C28.6258 5.82212 28.6258 4.3383 31.9883 4.3383C35.35 4.3383 35.35 5.82284 35.35 7.43449C35.35 9.06267 35.35 10.5465 31.9883 10.5465C28.6258 10.5465 28.6258 9.06195 28.6258 7.43449ZM54.7372 12.7808V10.2276H47.3567V2.08816H44.4748V12.7808H54.7365H54.7372ZM66.9046 2.08816H56.6429V12.7808H66.9046V10.2276H59.5241V8.79119H65.303V6.23796H59.5241V4.6421H66.9046V2.08888V2.08816ZM78.2715 2.08816L74.6533 10.2276L71.0351 2.08816H68.4421V2.72664L73.2131 12.7808H76.095L80.8659 2.72664V2.08816H78.2722H78.2715ZM92.8078 2.08816H82.5461V12.7808H92.8078V10.2276H85.4273V8.79119H91.2062V6.23796H85.4273V4.6421H92.8078V2.08888V2.08816ZM104.975 12.7808V10.2276H97.5946V2.08816H94.7127V12.7808H104.974H104.975Z" fill="white"/>
<path d="M8.5923 31.1451C5.97914 31.1451 2.87966 30.7365 0.113037 30.1238V34.4137C2.5468 34.9243 5.10808 35.231 7.79834 35.231H8.72054C15.2531 35.231 17.1487 32.6261 17.1487 29.7152V29.3834C17.1487 24.3523 11.2566 24.1735 8.82285 24.1225C5.9287 24.0457 4.80116 23.8668 4.80116 22.6416C4.80116 22.0541 5.05765 21.2116 8.7717 21.2116C11.2825 21.2116 13.7163 21.5693 16.2012 22.1568V17.943C14.1003 17.4065 11.8467 17.1006 9.51523 17.1006H8.59302C2.0857 17.1006 0.190128 19.7055 0.190128 22.6423V22.9741C0.190128 27.9541 5.87683 28.1323 8.48999 28.2091C11.4619 28.286 12.5376 28.4641 12.5376 29.6642C12.5376 30.3027 12.2559 31.1459 8.59302 31.1459L8.5923 31.1451ZM20.4787 17.6105V34.7204H25.0897V28.3362H28.2411L33.6208 34.7204H38.1296V33.6991L31.8017 26.1658L38.1296 18.6325V17.6112H33.6208L28.0365 24.2511H25.0904V17.6112H20.4794L20.4787 17.6105ZM40.9474 17.6105V34.7204H45.5584V17.6105H40.9474ZM65.566 34.7204V30.6345H53.7559V17.6105H49.1449V34.7204H65.566ZM85.0353 34.7204V30.6345H73.2253V17.6105H68.6143V34.7204H85.0353ZM96.4354 31.1451C93.8222 31.1451 90.7228 30.7365 87.9561 30.1238V34.4137C90.3899 34.9243 92.9512 35.231 95.6414 35.231H96.5636C103.096 35.231 104.992 32.6261 104.992 29.7152V29.3834C104.992 24.3523 99.0997 24.1735 96.6659 24.1225C93.7718 24.0457 92.6443 23.8668 92.6443 22.6416C92.6443 22.0541 92.9007 21.2116 96.6148 21.2116C99.1256 21.2116 101.559 21.5693 104.044 22.1568V17.943C101.943 17.4065 99.6898 17.1006 97.3583 17.1006H96.4361C89.9288 17.1006 88.0332 19.7055 88.0332 22.6423V22.9741C88.0332 27.9541 93.7199 28.1323 96.3331 28.2091C99.305 28.286 100.381 28.4641 100.381 29.6642C100.381 30.3027 100.099 31.1459 96.4361 31.1459L96.4354 31.1451Z" fill="#FAB706"/>
<path d="M111.992 36.9999H113.075V0H111.992V36.9999Z" fill="white"/>
<path d="M121.614 14.5V3.39492H123.581L127.372 8.58258L130.989 3.39492H132.83V14.5H130.894V6.47262L127.388 11.4064H127.103L123.565 6.52021V14.5H121.614ZM135.945 9.20129L135.485 7.86868C136.104 7.5038 137.071 7.18651 138.007 7.18651C140.117 7.18651 140.863 8.26529 140.863 10.1532V14.5H139.276V13.6751C138.896 14.2144 138.134 14.5952 137.166 14.5952C135.866 14.5952 134.93 13.7861 134.93 12.4059C134.93 10.8353 136.088 10.0897 137.531 10.0897C138.166 10.0897 138.801 10.2959 139.15 10.5498C139.197 9.35994 138.88 8.7095 137.817 8.7095C136.992 8.7095 136.468 8.96333 135.945 9.20129ZM137.769 13.0563C138.531 13.0563 138.927 12.7232 139.15 12.4059V11.6761C138.832 11.4382 138.42 11.3271 137.896 11.3271C137.293 11.3271 136.754 11.6127 136.754 12.2155C136.754 12.7549 137.198 13.0563 137.769 13.0563ZM142.733 17.6729V7.36102H144.558V8.04319C145.002 7.56726 145.843 7.18651 146.763 7.18651C148.73 7.18651 149.999 8.7095 149.999 10.8195C149.999 12.9929 148.508 14.6745 146.223 14.6745C145.589 14.6745 144.97 14.5635 144.558 14.3255V17.6729H142.733ZM146.192 8.89987C145.573 8.89987 145.002 9.18543 144.558 9.67722V12.5645C145.049 12.8818 145.462 12.977 146.065 12.977C147.334 12.977 148.064 12.0569 148.064 10.8671C148.064 9.72482 147.397 8.89987 146.192 8.89987ZM158.338 7.36102L155.593 10.756L158.671 14.5H156.291L153.467 10.8988L156.037 7.36102H158.338ZM151.579 14.5V7.36102H153.404V14.5H151.579ZM164.91 12.5011L165.434 13.7861C164.72 14.3889 163.705 14.6745 162.705 14.6745C160.405 14.6745 158.866 13.1833 158.866 10.9305C158.866 8.85228 160.294 7.18651 162.642 7.18651C164.482 7.18651 166.021 8.50326 166.021 10.5022C166.021 10.9464 165.989 11.2161 165.91 11.4858H160.754C160.913 12.5645 161.769 13.1515 162.896 13.1515C163.768 13.1515 164.498 12.8342 164.91 12.5011ZM162.562 8.7095C161.468 8.7095 160.881 9.32821 160.69 10.2642H164.196C164.212 9.39166 163.609 8.7095 162.562 8.7095ZM166.667 9.18543V7.36102H173.172V9.18543H170.84V14.5H169.015V9.18543H166.667ZM179.348 14.5V9.07438H176.302V14.5H174.477V7.36102H181.172V14.5H179.348ZM187.896 14.5V9.18543H186.008L185.96 9.94692C185.611 13.8337 184.659 14.6428 182.74 14.6428L182.581 12.866C183.2 12.9294 184.041 12.3424 184.199 9.58204L184.31 7.36102H189.72V14.5H187.896ZM197.352 12.5011L197.875 13.7861C197.161 14.3889 196.146 14.6745 195.147 14.6745C192.846 14.6745 191.307 13.1833 191.307 10.9305C191.307 8.85228 192.735 7.18651 195.083 7.18651C196.923 7.18651 198.462 8.50326 198.462 10.5022C198.462 10.9464 198.431 11.2161 198.351 11.4858H193.195C193.354 12.5645 194.211 13.1515 195.337 13.1515C196.21 13.1515 196.939 12.8342 197.352 12.5011ZM195.004 8.7095C193.909 8.7095 193.322 9.32821 193.132 10.2642H196.638C196.654 9.39166 196.051 8.7095 195.004 8.7095ZM201.756 14.5H199.932V7.36102H201.756V11.8824L205.088 7.36102H206.912V14.5H205.088V9.97865L201.756 14.5ZM200.995 3.79153H202.66C202.66 4.37852 202.883 4.94963 203.485 4.94963C204.025 4.94963 204.247 4.37852 204.247 3.79153H205.913C205.913 5.15587 205.088 6.25051 203.485 6.25051C201.709 6.25051 200.995 5.17174 200.995 3.79153ZM214.358 12.1045L215.215 13.4371C214.612 14.2462 213.533 14.6745 212.375 14.6745C210.059 14.6745 208.504 13.1833 208.504 10.9305C208.504 8.85228 210.027 7.18651 212.201 7.18651C213.375 7.18651 214.406 7.48794 215.072 8.15424L214.215 9.5979C213.676 9.07438 213.089 8.89987 212.439 8.89987C211.423 8.89987 210.456 9.67722 210.456 10.9305C210.456 12.1997 211.439 12.977 212.518 12.977C213.295 12.977 213.898 12.6121 214.358 12.1045ZM120.646 26.9305C120.646 24.7888 122.169 23.1865 124.533 23.1865C126.896 23.1865 128.419 24.7888 128.419 26.9305C128.419 29.0722 126.896 30.6745 124.533 30.6745C122.169 30.6745 120.646 29.0722 120.646 26.9305ZM122.597 26.9305C122.597 28.1203 123.422 28.977 124.533 28.977C125.659 28.977 126.484 28.1679 126.484 26.9305C126.484 25.7248 125.643 24.8999 124.533 24.8999C123.454 24.8999 122.597 25.6931 122.597 26.9305ZM135.36 19.2204L136.312 20.7117C135.376 21.8222 134.234 21.4732 132.854 22.1553C131.823 22.6313 131.426 23.6942 131.315 24.8205H131.347C131.791 24.0432 132.806 23.4879 133.853 23.4879C135.82 23.4879 137.106 24.8523 137.106 26.994C137.106 28.9929 135.614 30.6745 133.362 30.6745C130.966 30.6745 129.491 28.9294 129.491 26.1532C129.491 23.8211 130.014 21.3462 132.188 20.4102C133.758 19.7439 134.615 20.0771 135.36 19.2204ZM131.442 26.5339C131.458 27.9141 132.156 28.977 133.314 28.977C134.472 28.977 135.154 28.1045 135.154 27.0733C135.154 26.0104 134.551 25.1854 133.393 25.1854C132.378 25.1854 131.68 25.8041 131.442 26.5339ZM138.69 33.6729V23.361H140.514V24.0432C140.958 23.5673 141.799 23.1865 142.719 23.1865C144.686 23.1865 145.955 24.7095 145.955 26.8195C145.955 28.9929 144.464 30.6745 142.18 30.6745C141.545 30.6745 140.926 30.5635 140.514 30.3255V33.6729H138.69ZM142.148 24.8999C141.529 24.8999 140.958 25.1854 140.514 25.6772V28.5645C141.006 28.8818 141.418 28.977 142.021 28.977C143.29 28.977 144.02 28.0569 144.02 26.8671C144.02 25.7248 143.354 24.8999 142.148 24.8999ZM148.091 25.2013L147.631 23.8687C148.25 23.5038 149.217 23.1865 150.153 23.1865C152.263 23.1865 153.009 24.2653 153.009 26.1532V30.5H151.423V29.6751C151.042 30.2144 150.28 30.5952 149.313 30.5952C148.012 30.5952 147.076 29.7861 147.076 28.4059C147.076 26.8353 148.234 26.0897 149.678 26.0897C150.312 26.0897 150.947 26.2959 151.296 26.5498C151.343 25.3599 151.026 24.7095 149.963 24.7095C149.138 24.7095 148.615 24.9633 148.091 25.2013ZM149.916 29.0563C150.677 29.0563 151.074 28.7232 151.296 28.4059V27.6761C150.978 27.4382 150.566 27.3271 150.042 27.3271C149.44 27.3271 148.9 27.6127 148.9 28.2155C148.9 28.7549 149.344 29.0563 149.916 29.0563ZM157.402 30.6745C156.133 30.6745 154.816 30.151 154.292 29.4847L155.228 28.3424C155.657 28.8184 156.561 29.215 157.243 29.215C158.195 29.215 158.703 28.8501 158.703 28.3424C158.703 27.8665 158.322 27.5334 157.624 27.5334H156.291V26.3118H157.545C158.147 26.3118 158.496 25.8993 158.496 25.4393C158.496 24.9475 158.036 24.6619 157.243 24.6619C156.418 24.6619 155.736 25.1061 155.292 25.4869L154.53 24.3922C155.181 23.6307 156.244 23.1865 157.592 23.1865C159.48 23.1865 160.448 23.9797 160.448 25.2172C160.448 25.8993 159.972 26.518 159.131 26.8036V26.8353C160.13 27.0257 160.638 27.692 160.638 28.517C160.638 29.8496 159.337 30.6745 157.402 30.6745ZM161.918 26.9305C161.918 24.7888 163.441 23.1865 165.805 23.1865C168.169 23.1865 169.692 24.7888 169.692 26.9305C169.692 29.0722 168.169 30.6745 165.805 30.6745C163.441 30.6745 161.918 29.0722 161.918 26.9305ZM163.869 26.9305C163.869 28.1203 164.694 28.977 165.805 28.977C166.931 28.977 167.756 28.1679 167.756 26.9305C167.756 25.7248 166.915 24.8999 165.805 24.8999C164.726 24.8999 163.869 25.6931 163.869 26.9305ZM171.27 30.5V23.361C171.889 23.3452 172.968 23.2817 174.078 23.2817C176.157 23.2817 177.315 23.8528 177.315 25.1537C177.315 26.0104 176.696 26.6291 175.982 26.7401V26.7719C176.982 27.0098 177.505 27.5968 177.505 28.4218C177.505 29.8337 176.411 30.5793 174.11 30.5793C173.222 30.5793 171.921 30.5 171.27 30.5ZM174.237 27.4699H173.095V29.0563C173.365 29.0722 173.856 29.1198 174.301 29.1198C175.11 29.1198 175.586 28.7866 175.586 28.2948C175.586 27.7555 175.094 27.4699 174.237 27.4699ZM174.237 24.7571C173.809 24.7571 173.285 24.773 173.095 24.7888V26.3594H174.285C174.888 26.3594 175.379 26.0897 175.379 25.5344C175.379 25.0109 174.919 24.7571 174.237 24.7571ZM179.789 25.2013L179.329 23.8687C179.948 23.5038 180.915 23.1865 181.851 23.1865C183.961 23.1865 184.707 24.2653 184.707 26.1532V30.5H183.12V29.6751C182.74 30.2144 181.978 30.5952 181.01 30.5952C179.71 30.5952 178.774 29.7861 178.774 28.4059C178.774 26.8353 179.932 26.0897 181.375 26.0897C182.01 26.0897 182.644 26.2959 182.994 26.5498C183.041 25.3599 182.724 24.7095 181.661 24.7095C180.836 24.7095 180.312 24.9633 179.789 25.2013ZM181.613 29.0563C182.375 29.0563 182.771 28.7232 182.994 28.4059V27.6761C182.676 27.4382 182.264 27.3271 181.74 27.3271C181.137 27.3271 180.598 27.6127 180.598 28.2155C180.598 28.7549 181.042 29.0563 181.613 29.0563ZM185.832 25.1854V23.361H192.336V25.1854H190.004V30.5H188.179V25.1854H185.832ZM199.025 28.5011L199.549 29.7861C198.835 30.3889 197.819 30.6745 196.82 30.6745C194.519 30.6745 192.981 29.1833 192.981 26.9305C192.981 24.8523 194.408 23.1865 196.756 23.1865C198.597 23.1865 200.135 24.5033 200.135 26.5022C200.135 26.9464 200.104 27.2161 200.024 27.4858H194.869C195.027 28.5645 195.884 29.1515 197.01 29.1515C197.883 29.1515 198.613 28.8342 199.025 28.5011ZM196.677 24.7095C195.582 24.7095 194.995 25.3282 194.805 26.2642H198.311C198.327 25.3917 197.724 24.7095 196.677 24.7095ZM206.068 30.5V25.1854H204.181L204.133 25.9469C203.784 29.8337 202.832 30.6428 200.912 30.6428L200.754 28.866C201.373 28.9294 202.213 28.3424 202.372 25.582L202.483 23.361H207.893V30.5H206.068ZM209.924 30.5V23.361H211.749V25.3123H212.732C215.16 25.3123 215.874 26.518 215.874 27.7872C215.874 29.1515 215.017 30.5 212.59 30.5H209.924ZM212.574 26.7719H211.749V28.9136H212.558C213.542 28.9136 213.938 28.5011 213.938 27.8506C213.938 27.2002 213.557 26.7719 212.574 26.7719ZM222.28 30.5V27.7713H219.154V30.5H217.33V23.361H219.154V26.058H222.28V23.361H224.104V30.5H222.28ZM226.13 30.5V23.361H227.954V25.3123H228.842C231.27 25.3123 231.984 26.518 231.984 27.7872C231.984 29.1515 231.127 30.5 228.7 30.5H226.13ZM232.999 30.5V23.361H234.823V30.5H232.999ZM228.684 26.7719H227.954V28.9136H228.668C229.652 28.9136 230.048 28.5011 230.048 27.8506C230.048 27.2002 229.667 26.7719 228.684 26.7719ZM243.672 23.361L241.293 26.7719L243.831 30.5H241.61L239.944 27.93L238.215 30.5H236.105L238.643 26.8671L236.264 23.361H238.5L240.008 25.7248L241.562 23.361H243.672ZM253.371 30.5V25.0744H250.325V30.5H248.501V23.361H255.196V30.5H253.371ZM257.223 33.6729V23.361H259.048V24.0432C259.492 23.5673 260.333 23.1865 261.253 23.1865C263.22 23.1865 264.489 24.7095 264.489 26.8195C264.489 28.9929 262.998 30.6745 260.713 30.6745C260.079 30.6745 259.46 30.5635 259.048 30.3255V33.6729H257.223ZM260.682 24.8999C260.063 24.8999 259.492 25.1854 259.048 25.6772V28.5645C259.539 28.8818 259.952 28.977 260.555 28.977C261.824 28.977 262.554 28.0569 262.554 26.8671C262.554 25.7248 261.887 24.8999 260.682 24.8999ZM265.625 26.9305C265.625 24.7888 267.148 23.1865 269.512 23.1865C271.876 23.1865 273.399 24.7888 273.399 26.9305C273.399 29.0722 271.876 30.6745 269.512 30.6745C267.148 30.6745 265.625 29.0722 265.625 26.9305ZM267.577 26.9305C267.577 28.1203 268.402 28.977 269.512 28.977C270.638 28.977 271.463 28.1679 271.463 26.9305C271.463 25.7248 270.623 24.8999 269.512 24.8999C268.433 24.8999 267.577 25.6931 267.577 26.9305ZM274.978 30.5V23.361H279.769V25.0744H276.802V30.5H274.978ZM280.911 33.6729V23.361H282.736V24.0432C283.18 23.5673 284.021 23.1865 284.941 23.1865C286.908 23.1865 288.177 24.7095 288.177 26.8195C288.177 28.9929 286.686 30.6745 284.402 30.6745C283.767 30.6745 283.148 30.5635 282.736 30.3255V33.6729H280.911ZM284.37 24.8999C283.751 24.8999 283.18 25.1854 282.736 25.6772V28.5645C283.228 28.8818 283.64 28.977 284.243 28.977C285.512 28.977 286.242 28.0569 286.242 26.8671C286.242 25.7248 285.576 24.8999 284.37 24.8999ZM290.313 25.2013L289.853 23.8687C290.472 23.5038 291.439 23.1865 292.375 23.1865C294.485 23.1865 295.231 24.2653 295.231 26.1532V30.5H293.644V29.6751C293.264 30.2144 292.502 30.5952 291.534 30.5952C290.234 30.5952 289.298 29.7861 289.298 28.4059C289.298 26.8353 290.456 26.0897 291.899 26.0897C292.534 26.0897 293.169 26.2959 293.518 26.5498C293.565 25.3599 293.248 24.7095 292.185 24.7095C291.36 24.7095 290.836 24.9633 290.313 25.2013ZM292.137 29.0563C292.899 29.0563 293.295 28.7232 293.518 28.4059V27.6761C293.2 27.4382 292.788 27.3271 292.264 27.3271C291.661 27.3271 291.122 27.6127 291.122 28.2155C291.122 28.7549 291.566 29.0563 292.137 29.0563ZM297.101 30.5V23.361H298.751L301.178 26.3435L303.479 23.361H305.081V30.5H303.257V26.1373L301.147 28.8025H301.099L298.926 26.1373V30.5H297.101ZM307.109 30.5V23.361H308.759L311.186 26.3435L313.487 23.361H315.089V30.5H313.265V26.1373L311.155 28.8025H311.107L308.934 26.1373V30.5H307.109Z" fill="white"/>
</svg>
