<svg width="18" height="19" viewBox="0 0 18 19" fill="none" xmlns="http://www.w3.org/2000/svg">
<g clip-path="url(#clip0_4804_706)">
<path fill-rule="evenodd" clip-rule="evenodd" d="M9.91334 2.0135C9.6991 1.81061 9.36363 1.81061 9.14939 2.0135C7.65566 3.42813 5.64012 4.29495 3.42093 4.29495C3.38562 4.29495 3.35036 4.29473 3.31516 4.29429C3.0727 4.29128 2.8563 4.44589 2.78056 4.67625C2.47501 5.6056 2.30994 6.59805 2.30994 7.62795C2.30994 12.029 5.32002 15.7255 9.3929 16.7738C9.48373 16.7972 9.579 16.7972 9.66983 16.7738C13.7427 15.7255 16.7528 12.029 16.7528 7.62795C16.7528 6.59805 16.5877 5.6056 16.2822 4.67625C16.2064 4.44589 15.99 4.29128 15.7476 4.29429C15.7124 4.29473 15.6771 4.29495 15.6418 4.29495C13.4226 4.29495 11.4071 3.42813 9.91334 2.0135Z" fill="#26C818" stroke="white" stroke-width="1.11099" stroke-linejoin="round"/>
<path d="M7.49451 9.84991L9.16099 11.5164L11.9385 7.62793" stroke="white" stroke-width="1.11099" stroke-linecap="round" stroke-linejoin="round"/>
</g>
<defs>
<clipPath id="clip0_4804_706">
<rect width="17.7758" height="17.7758" fill="white" transform="translate(0.0878906 0.406738)"/>
</clipPath>
</defs>
</svg>
