<svg width="317" height="38" viewBox="0 0 317 38" fill="none" xmlns="http://www.w3.org/2000/svg">
<path d="M10.8864 6.09876C10.8864 3.99225 9.89427 2.26855 6.30775 2.26855H5.85962C3.92226 2.26855 1.82496 2.3806 0 2.58744V13.2801H2.8819V10.4073C3.92226 10.5674 5.02747 10.5674 6.18023 10.5674H6.62836C9.95839 10.5674 10.8864 8.84374 10.8864 6.73724V6.09876ZM5.73137 8.01421C4.73928 8.01421 3.87399 7.9977 2.8819 7.87057V4.96614C3.93811 4.87062 5.17084 4.8225 5.84377 4.8225C8.00519 4.8225 8.00519 5.47679 8.00519 6.41836C8.00519 7.34413 8.00519 8.01421 5.73137 8.01421ZM23.8866 13.2808V12.6423L21.901 9.51383C23.2778 8.92347 23.7259 7.75853 23.7259 6.41764V5.77915C23.7259 3.84789 22.7338 2.26855 19.1473 2.26855H18.6992C16.7618 2.26855 14.6645 2.3806 12.8396 2.58744V13.2801H15.7215V9.7688C16.746 9.92824 17.8188 9.92824 18.9557 9.92824L21.1012 13.2801H23.8866V13.2808ZM18.7316 4.8225C20.8289 4.8225 20.8448 5.34895 20.8448 5.92351C20.8448 6.929 20.7965 7.37573 18.2352 7.37573C17.6912 7.37573 16.7143 7.35921 15.7222 7.23209V4.96542C16.7784 4.8699 17.9953 4.82178 18.7323 4.82178L18.7316 4.8225ZM25.6316 8.34962C25.6316 11.2382 26.9284 13.6004 31.587 13.6004H32.1634C36.822 13.6004 38.1189 11.2382 38.1189 8.34962V7.51937C38.1189 4.63074 36.822 2.26927 32.1634 2.26927H31.587C26.9284 2.26927 25.6316 4.63074 25.6316 7.51937V8.34962ZM28.5128 7.93449C28.5128 6.32212 28.5128 4.8383 31.8752 4.8383C35.237 4.8383 35.2369 6.32284 35.2369 7.93449C35.2369 9.56267 35.237 11.0465 31.8752 11.0465C28.5128 11.0465 28.5128 9.56195 28.5128 7.93449ZM54.6242 13.2808V10.7276H47.2437V2.58816H44.3618V13.2808H54.6235H54.6242ZM66.7916 2.58816H56.5298V13.2808H66.7916V10.7276H59.411V9.29119H65.1899V6.73796H59.411V5.1421H66.7916V2.58888V2.58816ZM78.1585 2.58816L74.5403 10.7276L70.922 2.58816H68.3291V3.22664L73.1 13.2808H75.9819L80.7529 3.22664V2.58816H78.1592H78.1585ZM92.6948 2.58816H82.4331V13.2808H92.6948V10.7276H85.3142V9.29119H91.0932V6.73796H85.3142V5.1421H92.6948V2.58888V2.58816ZM104.862 13.2808V10.7276H97.4816V2.58816H94.5997V13.2808H104.861H104.862Z" fill="#212A34"/>
<path d="M8.47926 31.6451C5.8661 31.6451 2.76662 31.2365 0 30.6238V34.9137C2.43376 35.4243 4.99505 35.731 7.6853 35.731H8.60751C15.14 35.731 17.0356 33.1261 17.0356 30.2152V29.8834C17.0356 24.8523 11.1436 24.6735 8.70981 24.6225C5.81567 24.5457 4.68813 24.3668 4.68813 23.1416C4.68813 22.5541 4.94461 21.7116 8.65866 21.7116C11.1695 21.7116 13.6033 22.0693 16.0882 22.6568V18.443C13.9873 17.9065 11.7336 17.6006 9.40219 17.6006H8.47998C1.97266 17.6006 0.0770907 20.2055 0.0770907 23.1423V23.4741C0.0770907 28.4541 5.76379 28.6323 8.37695 28.7091C11.3489 28.786 12.4246 28.9641 12.4246 30.1642C12.4246 30.8027 12.1429 31.6459 8.47998 31.6459L8.47926 31.6451ZM20.3656 18.1105V35.2204H24.9767V28.8362H28.128L33.5078 35.2204H38.0165V34.1991L31.6886 26.6658L38.0165 19.1325V18.1112H33.5078L27.9234 24.7511H24.9774V18.1112H20.3664L20.3656 18.1105ZM40.8343 18.1105V35.2204H45.4454V18.1105H40.8343ZM65.4529 35.2204V31.1345H53.6429V18.1105H49.0319V35.2204H65.4529ZM84.9223 35.2204V31.1345H73.1123V18.1105H68.5013V35.2204H84.9223ZM96.3223 31.6451C93.7092 31.6451 90.6097 31.2365 87.8431 30.6238V34.9137C90.2769 35.4243 92.8381 35.731 95.5284 35.731H96.4506C102.983 35.731 104.879 33.1261 104.879 30.2152V29.8834C104.879 24.8523 98.9867 24.6735 96.5529 24.6225C93.6588 24.5457 92.5312 24.3668 92.5312 23.1416C92.5312 22.5541 92.7877 21.7116 96.5017 21.7116C99.0126 21.7116 101.446 22.0693 103.931 22.6568V18.443C101.83 17.9065 99.5767 17.6006 97.2453 17.6006H96.3231C89.8158 17.6006 87.9202 20.2055 87.9202 23.1423V23.4741C87.9202 28.4541 93.6069 28.6323 96.22 28.7091C99.192 28.786 100.268 28.9641 100.268 30.1642C100.268 30.8027 99.986 31.6459 96.3231 31.6459L96.3223 31.6451Z" fill="#FAB706"/>
<path d="M111.879 37.4999H112.962V0.5H111.879V37.4999Z" fill="#B6B6B6"/>
<path d="M121.5 15V3.89492H123.467L127.259 9.08258L130.876 3.89492H132.716V15H130.781V6.97262L127.275 11.9064H126.989L123.452 7.02021V15H121.5ZM135.832 9.70129L135.372 8.36868C135.99 8.0038 136.958 7.68651 137.894 7.68651C140.004 7.68651 140.75 8.76529 140.75 10.6532V15H139.163V14.1751C138.782 14.7144 138.021 15.0952 137.053 15.0952C135.752 15.0952 134.816 14.2861 134.816 12.9059C134.816 11.3353 135.974 10.5897 137.418 10.5897C138.053 10.5897 138.687 10.7959 139.036 11.0498C139.084 9.85994 138.767 9.2095 137.704 9.2095C136.879 9.2095 136.355 9.46333 135.832 9.70129ZM137.656 13.5563C138.418 13.5563 138.814 13.2232 139.036 12.9059V12.1761C138.719 11.9382 138.306 11.8271 137.783 11.8271C137.18 11.8271 136.641 12.1127 136.641 12.7155C136.641 13.2549 137.085 13.5563 137.656 13.5563ZM142.62 18.1729V7.86102H144.444V8.54319C144.888 8.06726 145.729 7.68651 146.649 7.68651C148.617 7.68651 149.886 9.2095 149.886 11.3195C149.886 13.4929 148.395 15.1745 146.11 15.1745C145.475 15.1745 144.857 15.0635 144.444 14.8255V18.1729H142.62ZM146.078 9.39987C145.46 9.39987 144.888 9.68543 144.444 10.1772V13.0645C144.936 13.3818 145.349 13.477 145.951 13.477C147.221 13.477 147.95 12.5569 147.95 11.3671C147.95 10.2248 147.284 9.39987 146.078 9.39987ZM158.224 7.86102L155.48 11.256L158.558 15H156.178L153.354 11.3988L155.924 7.86102H158.224ZM151.466 15V7.86102H153.291V15H151.466ZM164.797 13.0011L165.321 14.2861C164.607 14.8889 163.591 15.1745 162.592 15.1745C160.292 15.1745 158.753 13.6833 158.753 11.4305C158.753 9.35228 160.181 7.68651 162.528 7.68651C164.369 7.68651 165.908 9.00326 165.908 11.0022C165.908 11.4464 165.876 11.7161 165.797 11.9858H160.641C160.799 13.0645 161.656 13.6515 162.782 13.6515C163.655 13.6515 164.385 13.3342 164.797 13.0011ZM162.449 9.2095C161.354 9.2095 160.767 9.82821 160.577 10.7642H164.083C164.099 9.89166 163.496 9.2095 162.449 9.2095ZM166.554 9.68543V7.86102H173.058V9.68543H170.726V15H168.902V9.68543H166.554ZM179.235 15V9.57438H176.189V15H174.364V7.86102H181.059V15H179.235ZM187.782 15V9.68543H185.894L185.847 10.4469C185.498 14.3337 184.546 15.1428 182.626 15.1428L182.468 13.366C183.086 13.4294 183.927 12.8424 184.086 10.082L184.197 7.86102H189.607V15H187.782ZM197.238 13.0011L197.762 14.2861C197.048 14.8889 196.033 15.1745 195.033 15.1745C192.733 15.1745 191.194 13.6833 191.194 11.4305C191.194 9.35228 192.622 7.68651 194.97 7.68651C196.81 7.68651 198.349 9.00326 198.349 11.0022C198.349 11.4464 198.317 11.7161 198.238 11.9858H193.082C193.241 13.0645 194.097 13.6515 195.224 13.6515C196.096 13.6515 196.826 13.3342 197.238 13.0011ZM194.891 9.2095C193.796 9.2095 193.209 9.82821 193.019 10.7642H196.525C196.54 9.89166 195.938 9.2095 194.891 9.2095ZM201.643 15H199.818V7.86102H201.643V12.3824L204.974 7.86102H206.799V15H204.974V10.4786L201.643 15ZM200.881 4.29153H202.547C202.547 4.87852 202.769 5.44963 203.372 5.44963C203.911 5.44963 204.134 4.87852 204.134 4.29153H205.799C205.799 5.65587 204.974 6.75051 203.372 6.75051C201.595 6.75051 200.881 5.67174 200.881 4.29153ZM214.245 12.6045L215.102 13.9371C214.499 14.7462 213.42 15.1745 212.262 15.1745C209.946 15.1745 208.391 13.6833 208.391 11.4305C208.391 9.35228 209.914 7.68651 212.087 7.68651C213.261 7.68651 214.292 7.98794 214.959 8.65424L214.102 10.0979C213.563 9.57438 212.976 9.39987 212.325 9.39987C211.31 9.39987 210.342 10.1772 210.342 11.4305C210.342 12.6997 211.326 13.477 212.405 13.477C213.182 13.477 213.785 13.1121 214.245 12.6045ZM120.533 27.4305C120.533 25.2888 122.056 23.6865 124.419 23.6865C126.783 23.6865 128.306 25.2888 128.306 27.4305C128.306 29.5722 126.783 31.1745 124.419 31.1745C122.056 31.1745 120.533 29.5722 120.533 27.4305ZM122.484 27.4305C122.484 28.6203 123.309 29.477 124.419 29.477C125.546 29.477 126.371 28.6679 126.371 27.4305C126.371 26.2248 125.53 25.3999 124.419 25.3999C123.341 25.3999 122.484 26.1931 122.484 27.4305ZM135.247 19.7204L136.199 21.2117C135.263 22.3222 134.121 21.9732 132.741 22.6553C131.709 23.1313 131.313 24.1942 131.202 25.3205H131.233C131.678 24.5432 132.693 23.9879 133.74 23.9879C135.707 23.9879 136.992 25.3523 136.992 27.494C136.992 29.4929 135.501 31.1745 133.248 31.1745C130.853 31.1745 129.377 29.4294 129.377 26.6532C129.377 24.3211 129.901 21.8462 132.074 20.9102C133.645 20.2439 134.502 20.5771 135.247 19.7204ZM131.329 27.0339C131.345 28.4141 132.043 29.477 133.201 29.477C134.359 29.477 135.041 28.6045 135.041 27.5733C135.041 26.5104 134.438 25.6854 133.28 25.6854C132.265 25.6854 131.567 26.3041 131.329 27.0339ZM138.576 34.1729V23.861H140.401V24.5432C140.845 24.0673 141.686 23.6865 142.606 23.6865C144.573 23.6865 145.842 25.2095 145.842 27.3195C145.842 29.4929 144.351 31.1745 142.066 31.1745C141.432 31.1745 140.813 31.0635 140.401 30.8255V34.1729H138.576ZM142.035 25.3999C141.416 25.3999 140.845 25.6854 140.401 26.1772V29.0645C140.893 29.3818 141.305 29.477 141.908 29.477C143.177 29.477 143.907 28.5569 143.907 27.3671C143.907 26.2248 143.24 25.3999 142.035 25.3999ZM147.978 25.7013L147.518 24.3687C148.136 24.0038 149.104 23.6865 150.04 23.6865C152.15 23.6865 152.896 24.7653 152.896 26.6532V31H151.309V30.1751C150.929 30.7144 150.167 31.0952 149.199 31.0952C147.898 31.0952 146.962 30.2861 146.962 28.9059C146.962 27.3353 148.121 26.5897 149.564 26.5897C150.199 26.5897 150.833 26.7959 151.182 27.0498C151.23 25.8599 150.913 25.2095 149.85 25.2095C149.025 25.2095 148.501 25.4633 147.978 25.7013ZM149.802 29.5563C150.564 29.5563 150.96 29.2232 151.182 28.9059V28.1761C150.865 27.9382 150.453 27.8271 149.929 27.8271C149.326 27.8271 148.787 28.1127 148.787 28.7155C148.787 29.2549 149.231 29.5563 149.802 29.5563ZM157.288 31.1745C156.019 31.1745 154.703 30.651 154.179 29.9847L155.115 28.8424C155.543 29.3184 156.448 29.715 157.13 29.715C158.082 29.715 158.589 29.3501 158.589 28.8424C158.589 28.3665 158.209 28.0334 157.511 28.0334H156.178V26.8118H157.431C158.034 26.8118 158.383 26.3993 158.383 25.9393C158.383 25.4475 157.923 25.1619 157.13 25.1619C156.305 25.1619 155.623 25.6061 155.179 25.9869L154.417 24.8922C155.067 24.1307 156.13 23.6865 157.479 23.6865C159.367 23.6865 160.334 24.4797 160.334 25.7172C160.334 26.3993 159.859 27.018 159.018 27.3036V27.3353C160.017 27.5257 160.525 28.192 160.525 29.017C160.525 30.3496 159.224 31.1745 157.288 31.1745ZM161.805 27.4305C161.805 25.2888 163.328 23.6865 165.692 23.6865C168.055 23.6865 169.578 25.2888 169.578 27.4305C169.578 29.5722 168.055 31.1745 165.692 31.1745C163.328 31.1745 161.805 29.5722 161.805 27.4305ZM163.756 27.4305C163.756 28.6203 164.581 29.477 165.692 29.477C166.818 29.477 167.643 28.6679 167.643 27.4305C167.643 26.2248 166.802 25.3999 165.692 25.3999C164.613 25.3999 163.756 26.1931 163.756 27.4305ZM171.157 31V23.861C171.776 23.8452 172.855 23.7817 173.965 23.7817C176.043 23.7817 177.202 24.3528 177.202 25.6537C177.202 26.5104 176.583 27.1291 175.869 27.2401V27.2719C176.868 27.5098 177.392 28.0968 177.392 28.9218C177.392 30.3337 176.297 31.0793 173.997 31.0793C173.109 31.0793 171.808 31 171.157 31ZM174.124 27.9699H172.982V29.5563C173.251 29.5722 173.743 29.6198 174.187 29.6198C174.996 29.6198 175.472 29.2866 175.472 28.7948C175.472 28.2555 174.981 27.9699 174.124 27.9699ZM174.124 25.2571C173.695 25.2571 173.172 25.273 172.982 25.2888V26.8594H174.171C174.774 26.8594 175.266 26.5897 175.266 26.0344C175.266 25.5109 174.806 25.2571 174.124 25.2571ZM179.676 25.7013L179.216 24.3687C179.834 24.0038 180.802 23.6865 181.738 23.6865C183.848 23.6865 184.594 24.7653 184.594 26.6532V31H183.007V30.1751C182.626 30.7144 181.865 31.0952 180.897 31.0952C179.596 31.0952 178.66 30.2861 178.66 28.9059C178.66 27.3353 179.818 26.5897 181.262 26.5897C181.897 26.5897 182.531 26.7959 182.88 27.0498C182.928 25.8599 182.611 25.2095 181.548 25.2095C180.723 25.2095 180.199 25.4633 179.676 25.7013ZM181.5 29.5563C182.262 29.5563 182.658 29.2232 182.88 28.9059V28.1761C182.563 27.9382 182.15 27.8271 181.627 27.8271C181.024 27.8271 180.485 28.1127 180.485 28.7155C180.485 29.2549 180.929 29.5563 181.5 29.5563ZM185.718 25.6854V23.861H192.223V25.6854H189.891V31H188.066V25.6854H185.718ZM198.912 29.0011L199.435 30.2861C198.721 30.8889 197.706 31.1745 196.707 31.1745C194.406 31.1745 192.867 29.6833 192.867 27.4305C192.867 25.3523 194.295 23.6865 196.643 23.6865C198.483 23.6865 200.022 25.0033 200.022 27.0022C200.022 27.4464 199.99 27.7161 199.911 27.9858H194.755C194.914 29.0645 195.771 29.6515 196.897 29.6515C197.769 29.6515 198.499 29.3342 198.912 29.0011ZM196.564 25.2095C195.469 25.2095 194.882 25.8282 194.692 26.7642H198.198C198.214 25.8917 197.611 25.2095 196.564 25.2095ZM205.955 31V25.6854H204.067L204.02 26.4469C203.671 30.3337 202.719 31.1428 200.799 31.1428L200.641 29.366C201.259 29.4294 202.1 28.8424 202.259 26.082L202.37 23.861H207.78V31H205.955ZM209.811 31V23.861H211.636V25.8123H212.619C215.046 25.8123 215.76 27.018 215.76 28.2872C215.76 29.6515 214.904 31 212.476 31H209.811ZM212.461 27.2719H211.636V29.4136H212.445C213.428 29.4136 213.825 29.0011 213.825 28.3506C213.825 27.7002 213.444 27.2719 212.461 27.2719ZM222.166 31V28.2713H219.041V31H217.217V23.861H219.041V26.558H222.166V23.861H223.991V31H222.166ZM226.016 31V23.861H227.841V25.8123H228.729C231.156 25.8123 231.87 27.018 231.87 28.2872C231.87 29.6515 231.014 31 228.586 31H226.016ZM232.886 31V23.861H234.71V31H232.886ZM228.571 27.2719H227.841V29.4136H228.555C229.538 29.4136 229.935 29.0011 229.935 28.3506C229.935 27.7002 229.554 27.2719 228.571 27.2719ZM243.559 23.861L241.179 27.2719L243.718 31H241.497L239.831 28.43L238.102 31H235.992L238.53 27.3671L236.15 23.861H238.387L239.894 26.2248L241.449 23.861H243.559ZM253.258 31V25.5744H250.212V31H248.388V23.861H255.082V31H253.258ZM257.11 34.1729V23.861H258.934V24.5432C259.379 24.0673 260.219 23.6865 261.14 23.6865C263.107 23.6865 264.376 25.2095 264.376 27.3195C264.376 29.4929 262.885 31.1745 260.6 31.1745C259.966 31.1745 259.347 31.0635 258.934 30.8255V34.1729H257.11ZM260.568 25.3999C259.95 25.3999 259.379 25.6854 258.934 26.1772V29.0645C259.426 29.3818 259.839 29.477 260.441 29.477C261.711 29.477 262.44 28.5569 262.44 27.3671C262.44 26.2248 261.774 25.3999 260.568 25.3999ZM265.512 27.4305C265.512 25.2888 267.035 23.6865 269.399 23.6865C271.763 23.6865 273.286 25.2888 273.286 27.4305C273.286 29.5722 271.763 31.1745 269.399 31.1745C267.035 31.1745 265.512 29.5722 265.512 27.4305ZM267.463 27.4305C267.463 28.6203 268.288 29.477 269.399 29.477C270.525 29.477 271.35 28.6679 271.35 27.4305C271.35 26.2248 270.509 25.3999 269.399 25.3999C268.32 25.3999 267.463 26.1931 267.463 27.4305ZM274.864 31V23.861H279.656V25.5744H276.689V31H274.864ZM280.798 34.1729V23.861H282.623V24.5432C283.067 24.0673 283.908 23.6865 284.828 23.6865C286.795 23.6865 288.064 25.2095 288.064 27.3195C288.064 29.4929 286.573 31.1745 284.288 31.1745C283.654 31.1745 283.035 31.0635 282.623 30.8255V34.1729H280.798ZM284.257 25.3999C283.638 25.3999 283.067 25.6854 282.623 26.1772V29.0645C283.114 29.3818 283.527 29.477 284.13 29.477C285.399 29.477 286.129 28.5569 286.129 27.3671C286.129 26.2248 285.462 25.3999 284.257 25.3999ZM290.2 25.7013L289.74 24.3687C290.358 24.0038 291.326 23.6865 292.262 23.6865C294.372 23.6865 295.118 24.7653 295.118 26.6532V31H293.531V30.1751C293.15 30.7144 292.389 31.0952 291.421 31.0952C290.12 31.0952 289.184 30.2861 289.184 28.9059C289.184 27.3353 290.342 26.5897 291.786 26.5897C292.421 26.5897 293.055 26.7959 293.404 27.0498C293.452 25.8599 293.135 25.2095 292.072 25.2095C291.247 25.2095 290.723 25.4633 290.2 25.7013ZM292.024 29.5563C292.786 29.5563 293.182 29.2232 293.404 28.9059V28.1761C293.087 27.9382 292.674 27.8271 292.151 27.8271C291.548 27.8271 291.009 28.1127 291.009 28.7155C291.009 29.2549 291.453 29.5563 292.024 29.5563ZM296.988 31V23.861H298.638L301.065 26.8435L303.365 23.861H304.968V31H303.143V26.6373L301.033 29.3025H300.986L298.812 26.6373V31H296.988ZM306.996 31V23.861H308.646L311.073 26.8435L313.374 23.861H314.976V31H313.151V26.6373L311.041 29.3025H310.994L308.82 26.6373V31H306.996Z" fill="#212A34"/>
</svg>
