<svg width="33" height="34" viewBox="0 0 33 34" fill="none" xmlns="http://www.w3.org/2000/svg">
<path d="M5.69995 8.74961C5.69995 8.51091 5.79477 8.282 5.96355 8.11321C6.13234 7.94443 6.36126 7.84961 6.59995 7.84961H26.4C26.6386 7.84961 26.8676 7.94443 27.0363 8.11321C27.2051 8.282 27.2999 8.51091 27.2999 8.74961C27.2999 8.98831 27.2051 9.21722 27.0363 9.386C26.8676 9.55479 26.6386 9.64961 26.4 9.64961H6.59995C6.36126 9.64961 6.13234 9.55479 5.96356 9.38601C5.79477 9.21722 5.69995 8.9883 5.69995 8.74961ZM5.69995 16.9996C5.69995 16.7609 5.79477 16.532 5.96355 16.3632C6.13234 16.1944 6.36126 16.0996 6.59995 16.0996H26.4C26.6386 16.0996 26.8676 16.1944 27.0363 16.3632C27.2051 16.532 27.2999 16.7609 27.2999 16.9996C27.2999 17.2383 27.2051 17.4672 27.0363 17.636C26.8676 17.8048 26.6386 17.8996 26.4 17.8996H6.59995C6.36126 17.8996 6.13234 17.8048 5.96355 17.636C5.79477 17.4672 5.69995 17.2383 5.69995 16.9996ZM5.69995 25.2496C5.69995 25.0109 5.79477 24.782 5.96355 24.6132C6.13234 24.4444 6.36126 24.3496 6.59995 24.3496H26.4C26.6386 24.3496 26.8676 24.4444 27.0363 24.6132C27.2051 24.782 27.2999 25.0109 27.2999 25.2496C27.2999 25.4883 27.2051 25.7172 27.0363 25.886C26.8676 26.0548 26.6386 26.1496 26.4 26.1496H6.59995C6.36126 26.1496 6.13234 26.0548 5.96355 25.886C5.79477 25.7172 5.69995 25.4883 5.69995 25.2496Z" fill="#212A34" stroke="#212A34" stroke-width="1.5"/>
</svg>
