<svg width="36" height="36" viewBox="0 0 36 36" fill="none" xmlns="http://www.w3.org/2000/svg">
<g clip-path="url(#clip0_4807_2646)">
<path d="M0 16.9623C0 8.96618 0 4.96815 2.48407 2.48407C4.96815 0 8.96618 0 16.9623 0H18.3758C26.372 0 30.37 0 32.8541 2.48407C35.3382 4.96815 35.3382 8.96618 35.3382 16.9623V18.3758C35.3382 26.372 35.3382 30.37 32.8541 32.8541C30.37 35.3382 26.372 35.3382 18.3758 35.3382H16.9623C8.96618 35.3382 4.96815 35.3382 2.48407 32.8541C0 30.37 0 26.372 0 18.3758V16.9623Z" fill="#0077FF"/>
<path d="M18.8024 25.458C10.7482 25.458 6.15431 19.9365 5.96289 10.7485H9.99733C10.1298 17.4922 13.1041 20.3487 15.46 20.9377V10.7485H19.259V16.5646C21.5854 16.3143 24.0293 13.6639 24.8539 10.7485H28.6528C28.0196 14.3412 25.3693 16.9916 23.4846 18.0812C25.3693 18.9647 28.3879 21.2764 29.5364 25.458H25.3546C24.4564 22.6604 22.2185 20.496 19.259 20.2015V25.458H18.8024Z" fill="white"/>
</g>
<defs>
<clipPath id="clip0_4807_2646">
<rect width="35.3382" height="35.3382" fill="white"/>
</clipPath>
</defs>
</svg>
