<svg width="37" height="36" viewBox="0 0 37 36" fill="none" xmlns="http://www.w3.org/2000/svg">
<g clip-path="url(#clip0_4807_2649)">
<path d="M21.6484 21.4599C18.8213 24.3769 18.6157 28.0135 18.3716 35.9807C25.799 35.9807 30.9263 35.955 33.5734 33.3849C36.1434 30.7378 36.1692 25.3664 36.1692 18.1831C28.202 18.4401 24.5654 18.6328 21.6484 21.4599ZM0.188477 18.1831C0.188477 25.3664 0.214177 30.7378 2.78423 33.3849C5.43137 35.955 10.5586 35.9807 17.9861 35.9807C17.7291 28.0135 17.5363 24.3769 14.7092 21.4599C11.7922 18.6328 8.15563 18.4272 0.188477 18.1831ZM17.9861 0C10.5715 0 5.43137 0.0257005 2.78423 2.59575C0.214177 5.2429 0.188477 10.6143 0.188477 17.7976C8.15563 17.5406 11.7922 17.3478 14.7092 14.5208C17.5363 11.6038 17.7419 7.96715 17.9861 0ZM21.6484 14.5208C18.8213 11.6038 18.6157 7.96715 18.3716 0C25.799 0 30.9263 0.0257005 33.5734 2.59575C36.1434 5.2429 36.1692 10.6143 36.1692 17.7976C28.202 17.5406 24.5654 17.3478 21.6484 14.5208Z" fill="black"/>
<path d="M36.1692 18.1831V17.7976C28.202 17.5406 24.5654 17.3478 21.6484 14.5208C18.8213 11.6038 18.6157 7.96715 18.3716 0H17.9861C17.7291 7.96715 17.5363 11.6038 14.7092 14.5208C11.7922 17.3478 8.15563 17.5534 0.188477 17.7976V18.1831C8.15563 18.4401 11.7922 18.6328 14.7092 21.4599C17.5363 24.3769 17.7419 28.0135 17.9861 35.9807H18.3716C18.6286 28.0135 18.8213 24.3769 21.6484 21.4599C24.5654 18.6328 28.202 18.4272 36.1692 18.1831Z" fill="white"/>
</g>
<defs>
<clipPath id="clip0_4807_2649">
<rect width="35.9807" height="35.9807" fill="white" transform="translate(0.188477)"/>
</clipPath>
</defs>
</svg>
