<svg width="504" height="356" viewBox="0 0 504 356" fill="none" xmlns="http://www.w3.org/2000/svg">
<path d="M323.746 36.1733H166.024C162.749 36.1733 160.094 38.8283 160.094 42.1035V279.605C160.094 282.88 162.749 285.535 166.024 285.535H323.746C327.021 285.535 329.675 282.88 329.675 279.605V42.1035C329.675 38.8283 327.021 36.1733 323.746 36.1733Z" fill="#F2F6FB"/>
<path d="M170.619 48.0411C172.174 48.0411 173.435 46.9127 173.435 45.5208C173.435 44.1289 172.174 43.0005 170.619 43.0005C169.063 43.0005 167.802 44.1289 167.802 45.5208C167.802 46.9127 169.063 48.0411 170.619 48.0411Z" fill="#FAB706"/>
<path d="M179.958 48.0411C181.431 48.0411 182.626 46.9127 182.626 45.5208C182.626 44.1289 181.431 43.0005 179.958 43.0005C178.484 43.0005 177.289 44.1289 177.289 45.5208C177.289 46.9127 178.484 48.0411 179.958 48.0411Z" fill="#FFCB3D"/>
<path d="M189 48.0411C190.392 48.0411 191.52 46.9127 191.52 45.5208C191.52 44.1289 190.392 43.0005 189 43.0005C187.608 43.0005 186.48 44.1289 186.48 45.5208C186.48 46.9127 187.608 48.0411 189 48.0411Z" fill="#FAB706"/>
<path d="M231.84 43.0005H258.226C258.717 43.0005 259.115 43.3987 259.115 43.89V47.1516C259.115 47.6428 258.717 48.0411 258.226 48.0411H231.84C231.349 48.0411 230.95 47.6428 230.95 47.1516V43.89C230.95 43.3987 231.349 43.0005 231.84 43.0005ZM307.143 43.0005H321.374C321.865 43.0005 322.263 43.3987 322.263 43.89V47.1516C322.263 47.6428 321.865 48.0411 321.374 48.0411H307.143C306.652 48.0411 306.254 47.6428 306.254 47.1516V43.89C306.254 43.3987 306.652 43.0005 307.143 43.0005ZM287.576 43.0005H301.51C302.002 43.0005 302.4 43.3987 302.4 43.89V47.1516C302.4 47.6428 302.002 48.0411 301.51 48.0411H287.576C287.085 48.0411 286.687 47.6428 286.687 47.1516V43.89C286.687 43.3987 287.085 43.0005 287.576 43.0005ZM212.569 121.961H277.793C278.12 121.961 278.386 122.226 278.386 122.554V127.601C278.386 127.929 278.12 128.194 277.793 128.194H212.569C212.242 128.194 211.976 127.929 211.976 127.601V122.554C211.976 122.226 212.242 121.961 212.569 121.961ZM200.71 111.868H289.059C289.386 111.868 289.652 112.134 289.652 112.461V117.509C289.652 117.836 289.386 118.102 289.059 118.102H200.71C200.383 118.102 200.117 117.836 200.117 117.509V112.461C200.117 112.134 200.383 111.868 200.71 111.868ZM170.47 144.693C170.47 144.039 171.004 143.508 171.657 143.508H318.705C319.36 143.508 319.892 144.039 319.892 144.693V240.876C319.892 241.53 319.358 242.06 318.705 242.06H171.657C171.002 242.06 170.47 241.53 170.47 240.876V144.693ZM171.398 249.658H239.214C239.742 249.658 239.934 249.713 240.127 249.816C240.32 249.92 240.472 250.071 240.576 250.265C240.679 250.458 240.734 250.65 240.734 251.178V271.291C240.734 271.82 240.679 272.012 240.576 272.205C240.472 272.398 240.32 272.55 240.127 272.653C239.934 272.757 239.742 272.812 239.214 272.812H171.398C170.869 272.812 170.677 272.757 170.484 272.653C170.291 272.55 170.139 272.398 170.036 272.205C169.932 272.012 169.877 271.82 169.877 271.291V251.178C169.877 250.65 169.932 250.458 170.036 250.265C170.139 250.071 170.291 249.92 170.484 249.816C170.677 249.713 170.869 249.658 171.398 249.658ZM250.555 249.658H318.371C318.9 249.658 319.092 249.713 319.285 249.816C319.478 249.92 319.63 250.071 319.733 250.265C319.837 250.458 319.892 250.65 319.892 251.178V271.291C319.892 271.82 319.837 272.012 319.733 272.205C319.63 272.398 319.478 272.55 319.285 272.653C319.092 272.757 318.9 272.812 318.371 272.812H250.555C250.027 272.812 249.835 272.757 249.642 272.653C249.448 272.55 249.297 272.398 249.193 272.205C249.09 272.012 249.035 271.82 249.035 271.291V251.178C249.035 250.65 249.09 250.458 249.193 250.265C249.297 250.071 249.448 249.92 249.642 249.816C249.835 249.713 250.027 249.658 250.555 249.658Z" fill="#E1E5F0"/>
<path d="M270.07 176.745C274.399 176.745 277.908 173.221 277.908 168.874C277.908 164.527 274.399 161.003 270.07 161.003C265.742 161.003 262.232 164.527 262.232 168.874C262.232 173.221 265.742 176.745 270.07 176.745Z" fill="#F2F6FB"/>
<path d="M245.033 104.417V103.231C246.682 103.231 248.302 103.015 249.864 102.595L250.172 103.74C248.51 104.188 246.786 104.417 245.033 104.417ZM254.957 101.74L254.359 100.716C255.768 99.8936 257.063 98.888 258.21 97.7276L259.053 98.5615C257.833 99.7957 256.456 100.865 254.957 101.74ZM262.185 94.4277L261.154 93.8417C261.959 92.4257 262.574 90.9084 262.981 89.3242L264.129 89.6193C263.696 91.3056 263.041 92.9207 262.185 94.4277ZM264.747 84.4454L263.561 84.4603C263.54 82.8121 263.304 81.1947 262.863 79.6375L264.004 79.3143C264.473 80.9716 264.724 82.6926 264.747 84.4454ZM261.941 74.553L260.925 75.1642C260.084 73.7662 259.062 72.484 257.887 71.3518L258.71 70.4977C259.96 71.7019 261.047 73.0658 261.941 74.553ZM254.538 67.4201L253.965 68.4588C252.54 67.6727 251.015 67.0774 249.425 66.691L249.705 65.5386C251.397 65.9499 253.02 66.5835 254.538 67.4201ZM244.525 64.9878L244.555 66.1734C242.908 66.2151 241.294 66.4721 239.742 66.9338L239.404 65.797C241.055 65.3056 242.774 65.0321 244.525 64.9878ZM234.671 67.9213L235.295 68.9298C233.908 69.7883 232.639 70.8271 231.522 72.0166L230.658 71.2048C231.846 69.9395 233.195 68.8346 234.671 67.9213ZM227.634 75.4173L228.68 75.9764C227.913 77.4121 227.338 78.9446 226.972 80.5397L225.816 80.2746C226.205 78.5767 226.818 76.9453 227.634 75.4173ZM225.332 85.4619L226.517 85.4167C226.58 87.0625 226.858 88.6738 227.34 90.2207L226.208 90.5736C225.694 88.9272 225.399 87.2124 225.332 85.4619ZM228.392 95.2779L229.393 94.6407C230.269 96.0165 231.324 97.2722 232.527 98.3737L231.727 99.2487C230.446 98.077 229.324 96.7414 228.392 95.2779ZM235.977 102.218L236.522 101.165C237.967 101.913 239.506 102.469 241.106 102.814L240.856 103.973C239.153 103.606 237.514 103.015 235.977 102.218ZM257.445 224.408L247.158 224.455L247.187 224.408H202.258C199.475 224.408 198.416 222.495 199.892 220.135L230.595 171.05C232.071 168.69 234.514 168.657 236.053 170.98L258.868 205.696L266.939 192.767C268.24 190.682 270.398 190.649 271.761 192.696L290.447 220.752C291.809 222.797 290.935 224.276 288.474 224.2L274.81 224.33L270.495 224.349L270.531 224.408C270.531 224.408 268.277 224.408 265.492 224.408H257.445Z" fill="#FAB706"/>
<path opacity="0.176986" d="M270.409 224.476C270.409 224.476 268.155 224.476 265.37 224.476H202.136C199.353 224.476 198.294 222.563 199.77 220.203L230.473 171.118C231.949 168.758 234.392 168.725 235.931 171.048L262.482 211.449" fill="#444444"/>
<path d="M424.546 321.116H394.158C393.446 321.116 392.824 320.603 392.824 319.987V319.577C392.824 318.961 393.417 318.448 394.158 318.448H424.546C425.257 318.448 425.88 318.961 425.88 319.577V319.987C425.88 320.603 425.287 321.116 424.546 321.116ZM354.727 318.448C355.464 318.448 356.061 319.045 356.061 319.782C356.061 320.519 355.464 321.116 354.727 321.116H306.402C305.666 321.116 305.068 320.519 305.068 319.782C305.068 319.045 305.666 318.448 306.402 318.448H354.727Z" fill="#FAB706"/>
<path d="M424.708 318.456C424.654 318.451 424.6 318.448 424.546 318.448H394.26L396.656 303.322L417.883 300.446L424.708 318.456ZM354.904 318.459C354.846 318.451 354.787 318.448 354.727 318.448H306.612C306.58 318.285 306.564 318.081 306.569 317.816C306.602 317.609 306.606 317.371 306.67 317.135C307.05 315.718 307.511 314.778 308.86 313.941C310.209 313.105 311.586 312.358 313.021 311.701C318.313 309.213 320.121 309.245 323.6 306.963C325.04 306.009 326.364 304.905 327.601 303.711C328.425 302.915 330.108 301.621 332.65 299.831L355.507 300.342L354.904 318.459Z" fill="#474961"/>
<path d="M387.074 136.753C389.331 141.147 395.438 154.78 400.891 182.532C401.339 184.834 401.771 187.075 402.184 189.252L402.226 189.202C409.698 217.359 414.884 237.072 417.785 248.339C420.765 259.911 416.633 259.73 418.893 269.465C420.195 275.078 424.56 279.592 424.522 285.436C424.516 286.36 424.539 288.206 424.589 290.974C424.679 295.919 421.066 300.154 416.169 300.842L396.389 303.623C391.038 304.375 386.091 300.646 385.339 295.295C385.332 295.246 385.325 295.196 385.319 295.147C384.786 290.878 384.515 288.34 384.509 287.534C384.494 285.862 384.473 284.34 384.441 282.954C383.302 278.289 382.114 273.435 381.158 269.521C379.869 267.529 378.352 264.775 377.156 260.319C376.369 257.387 374.581 245.977 371.791 226.088C371.738 225.822 371.636 224.999 371.486 223.622L367.581 209.247C367.418 210.926 367.252 212.625 367.084 214.338C367.428 238.16 367.419 251.543 367.057 254.486C365.916 263.748 362.503 266.298 362.403 269.209C362.306 272.06 362.739 276.215 363.563 282.46C363.668 283.26 363.754 285.81 363.819 290.112C363.82 290.161 363.82 290.211 363.82 290.261C363.82 294.592 361.007 298.266 357.108 299.554C354.655 301.787 350.706 300.088 340.336 300.159C340.336 300.159 338.74 300.173 336.633 300.046L334.062 300.046C332.541 300.046 331.093 299.696 329.8 299.07C328.574 298.726 327.56 298.275 326.995 297.681C326.523 297.171 326.225 296.593 326.225 296.593C326.085 296.278 325.983 295.967 325.911 295.674C325.091 294.44 324.541 293.004 324.351 291.446C324.016 288.697 323.781 286.866 323.647 285.952C322.796 280.17 326.49 275.093 326.999 269.353C327.882 259.398 323.815 260.152 325.155 248.278C326.448 236.824 328.895 223.603 332.495 208.615C334.577 185.008 337.317 158.484 340.336 149.571C340.386 149.412 342.269 143.094 344.991 138.634C345.075 138.724 345.161 138.81 345.25 138.892C345.591 139.212 345.93 139.444 346.268 139.616C346.945 140.019 347.506 140.158 347.506 140.158C347.506 140.158 347.534 140.157 347.563 140.186C347.563 140.186 365.739 144.732 383.774 139.554L383.829 139.524C383.829 139.524 384.385 139.366 385.047 138.939C385.351 138.756 385.71 138.482 386.04 138.18C386.453 137.776 386.794 137.29 387.074 136.753Z" fill="#D1D5DB"/>
<path opacity="0.176986" d="M348.88 140.476L358.37 175.473L367.571 209.341C367.411 210.99 367.249 212.657 367.084 214.338C367.428 238.16 367.419 251.543 367.057 254.486C365.916 263.748 362.503 266.298 362.403 269.209C362.306 272.06 362.739 276.215 363.563 282.46C363.668 283.26 363.754 285.81 363.819 290.112C363.82 290.161 363.82 290.211 363.82 290.261C363.82 294.592 361.007 298.266 357.108 299.554C354.655 301.787 350.706 300.088 340.336 300.159C340.336 300.159 338.74 300.173 336.633 300.046L334.062 300.046C332.541 300.046 331.093 299.696 329.8 299.07C328.574 298.726 327.56 298.275 326.995 297.681C326.523 297.171 326.225 296.593 326.225 296.593C326.085 296.278 325.983 295.967 325.911 295.674C325.091 294.44 324.541 293.004 324.351 291.446C324.016 288.697 323.781 286.866 323.647 285.952C322.796 280.17 326.49 275.093 326.999 269.353C327.882 259.398 323.815 260.152 325.155 248.278C326.448 236.824 328.895 223.603 332.495 208.615C334.577 185.008 337.317 158.484 340.336 149.571C340.386 149.412 342.269 143.094 344.991 138.634C345.075 138.724 345.161 138.81 345.25 138.892C345.591 139.212 345.93 139.444 346.268 139.616C346.945 140.019 347.506 140.158 347.506 140.158C347.506 140.158 347.534 140.157 347.563 140.186C347.563 140.186 348.027 140.302 348.88 140.476Z" fill="#444444"/>
<path d="M387.39 99.5317C387.424 99.8725 387.457 100.225 387.49 100.588L387.491 100.677L387.573 102.128C388.05 118.282 388.288 125.543 388.422 128.388C388.422 128.388 388.399 128.685 388.435 129.129C388.513 130.433 388.635 135.798 386.164 138.214C385.834 138.516 385.475 138.789 385.171 138.972C384.509 139.399 383.953 139.557 383.953 139.557L383.898 139.588C365.863 144.766 347.687 140.22 347.687 140.22C347.379 140.139 347.083 140.056 346.519 139.774C345.965 139.498 345.438 139.091 345.269 138.933C342.743 136.604 342.782 131.231 342.815 129.926C342.808 129.51 342.802 129.184 342.802 129.184C342.834 126.471 342.823 119.882 342.749 105.586C335.668 104.93 332.801 102.887 334.149 99.4584C337.21 91.6705 339.238 84.1978 351.374 83.3343C354.352 81.8495 357.603 81.3524 359.866 81.2009C361.177 81.1187 362.155 81.1313 362.546 81.1542C362.714 81.1512 362.938 81.177 363.357 81.1993C363.776 81.2216 364.252 81.243 364.783 81.2634C365.313 81.2245 365.787 81.1866 366.205 81.1496C366.623 81.1126 366.818 81.0796 367.014 81.0762C367.432 81.0392 368.381 80.993 369.694 81.0294C370.007 81.0394 370.339 81.0551 370.687 81.0783C370.862 81.038 371.04 80.9984 371.221 80.9594C383.695 78.267 387.639 85.0834 392.703 91.938C394.73 94.6816 392.959 97.2129 387.39 99.5317Z" fill="#FAB706"/>
<path opacity="0.176986" d="M351.186 83.3335C349.453 84.2071 347.816 85.4177 346.525 87.0924C345.951 87.8438 345.217 88.9835 344.659 90.6243C344.58 90.8629 344.5 91.0719 344.42 91.3105C344.233 91.8179 343.833 92.8925 343.49 94.055C343.122 95.3663 342.831 97.8624 342.64 101.335L342.641 101.424L342.611 102.878C342.616 103.794 342.621 104.68 342.625 105.54C335.719 104.859 332.932 102.824 334.264 99.4344C337.3 91.7119 339.319 84.2993 351.186 83.3335Z" fill="#444444"/>
<path d="M385.342 172.066C385.095 172.258 384.949 172.344 384.949 172.344C381.057 171.691 386.622 157.274 388.28 153.194L374.31 103.216C382.983 101.382 388.703 99.3831 391.472 97.2192C399.004 127.528 403.073 146.967 403.681 155.538C403.727 155.809 403.756 156.101 403.766 156.411C403.928 161.399 402.271 169.031 398.795 179.309C398.767 179.369 389.726 183.809 383.366 180.055L385.342 172.066ZM347.299 55.0609C347.312 55.0444 347.324 55.0276 347.336 55.0106C349.938 52.094 354.729 52.1802 356.886 52.6454C357.148 52.7028 358.079 52.92 359.426 53.151C360.157 53.2874 360.747 53.3494 361.098 53.4161C365.472 54.0548 367.268 53.7069 369.355 55.1189C369.746 55.3687 370.634 55.9987 371.351 57.1175C373.373 60.2817 372.416 63.9973 372.151 65.1024C371.267 68.4083 369.104 70.2679 368.425 71.061C367.919 71.6608 367.217 72.3303 366.534 72.9352L367.195 82.5049C367.203 82.7123 367.121 82.9228 366.946 83.0179C366.192 83.5189 365.115 84.0906 363.762 84.4345C361.323 85.0835 359.205 84.7421 358.007 84.4279C357.768 84.3769 357.582 84.146 357.574 83.909L357.216 77.6335C356.956 77.7013 356.679 77.7716 356.384 77.8451C353.779 78.5253 353.935 78.4523 353.752 78.4927C351.845 78.7693 350.259 78.5429 349.97 78.453C348.918 78.2529 347.891 77.2505 347.046 75.6412C345.901 73.4934 345.02 70.2406 344.765 66.4274C344.703 65.8842 344.729 65.3504 344.756 64.8165L345.193 59.5257C345.287 58.3431 345.676 57.1914 346.378 56.1918C346.663 55.7448 346.939 55.3863 347.268 55.0929C347.278 55.0822 347.289 55.0715 347.299 55.0609ZM334.174 102.364C335.117 104.066 337.976 105.139 342.749 105.582C342.801 115.583 342.822 121.812 342.819 125.582C335.7 134.351 330.936 132.983 330.936 132.983C327.618 133.126 325.081 131.617 324.124 131.038C315.771 126 299.916 97.9644 297.182 93.0531C293.572 92.5586 290.202 91.61 287.071 90.2072C282.079 87.97 280.067 85.8474 281.036 83.8395L306.621 85.4916L306.691 85.4429L328.88 108.798C331.205 106.327 332.785 104.309 334.174 102.364Z" fill="#F2A98A"/>
<path opacity="0.2" d="M334.27 102.363C335.213 104.066 338.071 105.139 342.845 105.582C342.897 115.583 342.918 121.812 342.915 125.581C335.795 134.351 331.031 132.983 331.031 132.983C327.713 133.126 325.176 131.617 324.219 131.038C315.867 126 300.012 97.9642 297.277 93.053C293.667 92.5585 290.297 91.6098 287.167 90.207C282.174 87.9698 280.163 85.8473 281.131 83.8393L306.716 85.4914L306.786 85.4428L328.975 108.798C331.301 106.327 332.88 104.309 334.27 102.363Z" fill="#8C2A00"/>
<path d="M356.735 77.7374L361.103 76.3435L357.53 81.8039L356.735 77.7374Z" fill="#482D1F"/>
<path d="M367.384 65.7589C367.415 65.0404 367.267 64.3029 366.881 63.6243C366.077 62.1981 364.385 61.2749 362.921 61.598C362.097 61.7797 361.501 62.3432 361.436 62.3959C360.534 63.3149 360.246 64.3578 360.246 64.3578L360.101 65.0501C349.475 60.9962 347.415 55.8797 346.862 55.5571C347.031 55.3662 347.197 55.2047 347.301 55.0666C349.932 52.1531 354.811 52.2485 356.997 52.7169C357.289 52.7774 358.22 52.9945 359.597 53.2286C360.357 53.3682 360.947 53.4302 361.298 53.4969C365.761 54.1449 367.586 53.8001 369.702 55.2151C370.094 55.465 371.011 56.098 371.728 57.2169C373.965 60.6123 372.946 64.3512 372.558 65.2048C372.286 65.8024 371.86 66.1749 371.86 66.1749C370.289 65.9395 368.825 65.8352 367.384 65.7589ZM344.002 63.3407C343.709 63.2659 343.64 62.8763 343.859 62.6799C344.137 62.457 344.623 62.245 345.216 62.276C346.429 62.3396 347.69 63.2074 346.31 63.4913C345.5 63.6567 344.558 63.4886 344.002 63.3407ZM350.09 63.8676C349.797 63.7929 349.728 63.4033 349.976 63.2084C350.255 62.9855 350.741 62.7735 351.363 62.8061C352.577 62.8697 353.836 63.767 352.457 64.0214C351.586 64.2132 350.646 64.0155 350.09 63.8676Z" fill="#482D1F"/>
<path d="M346.203 65.5341C346.147 66.0359 346.015 66.8604 345.703 67.1409C345.176 67.5587 344.603 66.0441 345.036 65.1463C345.204 64.7692 345.414 64.7208 345.649 64.7628C346.002 64.8407 346.221 65.1788 346.203 65.5341ZM351.505 65.7527C351.509 66.2576 351.465 67.0867 351.151 67.4265C350.68 67.9066 349.926 66.4418 350.271 65.5098C350.41 65.1311 350.622 65.0531 350.859 65.0656C351.214 65.0842 351.494 65.3958 351.505 65.7527Z" fill="#482D1F"/>
<path d="M348.759 71.6957C348.97 71.6474 349.481 71.5257 349.587 71.2046C349.59 71.1454 349.624 71.0581 349.598 70.9974C349.49 70.7839 349.129 70.8837 348.594 70.8854C347.644 70.895 346.879 70.7658 346.879 70.7658C346.879 70.7658 347.055 71.3688 347.193 71.5543C347.466 72.0139 348.429 71.7675 348.759 71.6957Z" fill="#482D1F"/>
<path d="M347.058 65.6384L347.063 65.5974L347.059 65.6177L347.058 65.6384ZM346.453 68.7424C346.38 69.0734 346.622 69.4149 346.956 69.4889C347.03 69.4996 347.03 69.4996 347.077 69.5058C347.575 69.5704 347.886 69.6011 348.423 69.6292C348.586 69.6377 348.726 69.5121 348.734 69.3486C348.743 69.185 348.617 69.0455 348.454 69.037C347.934 69.0097 347.637 68.9805 347.154 68.9177L347.058 68.9053C347.058 68.904 347.032 68.8685 347.034 68.8629L347.645 65.7104L347.65 65.6694L347.742 63.9224C347.751 63.7589 347.625 63.6194 347.461 63.6108C347.298 63.6022 347.158 63.7279 347.15 63.8914L347.059 65.6177L346.453 68.7424Z" fill="#482D1F"/>
<path d="M367.364 65.3011C367.408 66.1793 367.154 67.1036 366.682 67.8188C366.106 68.722 365.38 69.1714 364.471 69.4803C364.316 69.533 364.233 69.7014 364.286 69.8565C364.339 70.0115 364.507 70.0945 364.662 70.0418C365.062 69.9059 365.382 69.7679 365.761 69.5334C366.319 69.1879 366.803 68.7318 367.18 68.1417C367.718 67.3251 368.007 66.276 367.956 65.2713C367.948 65.1077 367.809 64.9818 367.645 64.99C367.482 64.9983 367.356 65.1375 367.364 65.3011Z" fill="#482D1F"/>
<path d="M390.017 170.584C390.064 170.343 390.298 170.186 390.539 170.233C390.78 170.28 390.937 170.514 390.89 170.755C390.595 172.269 390.328 173.438 389.706 176.036C389.086 178.622 388.821 179.783 388.529 181.28C388.482 181.522 388.248 181.679 388.007 181.632C387.766 181.585 387.609 181.351 387.656 181.11C387.951 179.596 388.218 178.427 388.841 175.829C389.461 173.243 389.726 172.082 390.017 170.584ZM396.031 169.28C396.092 169.042 396.335 168.899 396.573 168.961C396.811 169.023 396.953 169.266 396.891 169.504C396.468 171.132 396.168 172.402 395.523 175.235C394.876 178.076 394.575 179.352 394.148 180.992C394.086 181.23 393.843 181.373 393.606 181.311C393.368 181.249 393.225 181.006 393.287 180.768C393.711 179.14 394.01 177.87 394.656 175.037C395.303 172.195 395.604 170.92 396.031 169.28Z" fill="#482D1F"/>
<path d="M295.878 90.5111C306.357 90.5111 314.852 81.9487 314.852 71.3864C314.852 60.8241 306.357 52.2617 295.878 52.2617C285.399 52.2617 276.904 60.8241 276.904 71.3864C276.904 81.9487 285.399 90.5111 295.878 90.5111Z" fill="#FAB706"/>
<path d="M295.93 70.9401C293.836 70.9401 292.139 69.2639 292.139 67.1961C292.139 65.1284 293.836 63.4521 295.93 63.4521C298.023 63.4521 299.72 65.1284 299.72 67.1961C299.72 69.2639 298.023 70.9401 295.93 70.9401ZM295.93 72.8121C299.724 72.8121 302.8 75.8502 302.8 79.598H289.059C289.059 75.8502 292.135 72.8121 295.93 72.8121Z" fill="#F2F6FB"/>
<path d="M93.4773 255.177V255.232C93.4773 255.944 94.0999 256.537 94.8115 256.537H117.195L109.309 271.007C103.676 281.325 98.0726 291.614 92.4694 301.932L83.1898 318.952C82.8637 319.545 83.1305 320.316 83.7531 320.671L83.8717 320.731C84.4943 321.087 85.2948 320.879 85.5912 320.316L120.308 256.537H143.433L178.149 320.316C178.446 320.879 179.246 321.057 179.869 320.731L179.987 320.671C180.61 320.316 180.877 319.545 180.551 318.952L171.271 301.932C165.638 291.614 160.035 281.325 154.432 271.007L146.545 256.537H176.222C176.963 256.537 177.556 255.944 177.556 255.232V255.084C177.556 254.373 176.934 253.78 176.222 253.78H156.062C142.929 253.78 129.765 253.78 116.602 253.78H96.095L93.5959 233.558C91.8764 219.8 90.1865 206.012 88.467 192.225L85.6505 169.453C85.5616 168.653 84.8797 168.06 84.1385 168.148L83.9903 168.178C83.2788 168.267 82.7748 169.008 82.8637 169.75L93.4477 255.025C93.4554 255.077 93.4653 255.128 93.4773 255.177Z" fill="#D8DEED"/>
<path d="M157.939 318.563C157.757 318.472 157.553 318.42 157.34 318.42H141.308L111.888 296.498L123.036 280.88L140.883 293.837C141.862 297.158 142.87 300.479 143.878 303.829C144.411 305.579 144.945 307.299 145.479 309.018C147.139 309.671 148.562 310.264 149.57 310.708C151.497 311.539 153.127 312.31 154.906 313.466C154.906 313.466 156.448 314.415 157.308 315.779C157.575 316.223 157.812 316.728 157.96 317.261C158.019 317.498 158.019 317.736 158.049 317.943C158.04 318.138 157.996 318.356 157.939 318.563ZM213.469 318.514C213.371 318.491 213.27 318.479 213.165 318.479H165.433C165.344 318.479 165.257 318.488 165.172 318.505L164.709 300.02L187.124 299.955C189.863 301.746 191.645 303.04 192.47 303.836C193.706 305.03 195.03 306.134 196.47 307.087C199.95 309.369 201.758 309.338 207.05 311.825C208.484 312.482 209.861 313.229 211.21 314.066C212.559 314.902 213.02 315.843 213.401 317.26C213.464 317.496 213.468 317.733 213.502 317.94C213.506 318.174 213.494 318.361 213.469 318.514Z" fill="#474961"/>
<path d="M140.228 320.85C140.199 320.831 140.17 320.811 140.142 320.79L110.376 298.611C109.784 298.167 109.665 297.307 110.11 296.714C110.554 296.121 111.414 296.002 112.007 296.447L141.454 318.388H157.486C158.227 318.388 158.849 319.011 158.849 319.752C158.849 320.494 158.227 321.116 157.486 321.116H141.032C140.73 321.116 140.453 321.018 140.228 320.85ZM165.579 318.448H213.311C214.048 318.448 214.645 319.045 214.645 319.782C214.645 320.519 214.048 321.116 213.311 321.116H165.579C164.842 321.116 164.245 320.519 164.245 319.782C164.245 319.045 164.842 318.448 165.579 318.448Z" fill="#FAB706"/>
<path d="M197.158 243.051C194.949 254.664 194.045 271.685 196.212 282.399C196.212 282.399 198.462 300.812 196.886 300.931C196.503 300.961 192.439 301.138 192.009 301.168C181.311 301.88 162.732 303.303 159.962 303.303C158.115 303.303 157.192 302.117 157.192 299.745L156.589 293.376V293.324C154.546 295.762 152.425 298.29 150.226 300.908C146.955 301.879 142.007 300.488 135.383 296.735C128.758 292.982 123.63 289.282 119.999 285.636C118.25 284.509 113.993 278.278 115.12 276.647L122.561 265.795L127.008 259.301C128.254 257.463 129.194 256.244 130.528 254.317C130.528 254.287 130.766 253.935 130.766 253.905C130.292 253.905 130.833 253.519 127.453 253.49C124.073 253.46 105.87 253.075 98.903 243.023C96.1237 239.013 95.9086 234.573 95.7011 232.586C94.9303 224.857 96.969 218.594 101.817 213.795C103.116 212.841 104.071 212.275 104.684 212.097C105.663 211.801 110.821 211.653 111.829 211.593L132.523 211.327C142.37 211.196 150.592 211.084 157.188 210.992L157.192 210.941L157.188 210.992C170.516 210.807 177.207 210.701 177.26 210.674C177.379 210.615 190.169 211.149 193.608 213.135C200.195 216.995 203.659 229.158 197.158 243.051Z" fill="#FFC855"/>
<path opacity="0.2" d="M197.094 243.167C194.894 254.779 193.997 271.756 196.16 282.45C196.16 282.45 198.409 300.863 196.833 300.982C196.451 301.012 192.387 301.19 191.957 301.219C181.259 301.931 162.68 303.354 159.91 303.354C158.063 303.354 157.14 302.168 157.14 299.796L156.538 293.437C182.079 262.955 195.447 246.51 196.643 244.103C196.798 243.79 196.949 243.478 197.094 243.167ZM157.128 211.138L157.14 210.992L157.128 211.138ZM168.325 210.977C168.319 210.977 168.313 210.977 168.308 210.978L167.886 210.903H167.933C168.064 210.928 168.195 210.953 168.325 210.977Z" fill="#8C2A00"/>
<path d="M144.213 234.127C142.75 236.34 141.21 238.49 137.47 243.607C133.717 248.742 132.171 250.899 130.694 253.133C130.513 253.407 130.589 253.775 130.862 253.955C131.135 254.136 131.503 254.061 131.683 253.788C133.146 251.575 134.687 249.425 138.427 244.307C142.18 239.173 143.725 237.016 145.202 234.781C145.383 234.508 145.308 234.14 145.035 233.96C144.762 233.779 144.394 233.854 144.213 234.127Z" fill="#482D1F"/>
<path d="M193.839 158.13C194.846 158.917 195.024 160.37 194.238 161.377C194.226 161.392 194.214 161.407 194.201 161.423L181.952 176.31C181.323 177.075 180.2 177.198 179.42 176.589C178.64 175.979 178.488 174.859 179.078 174.064L190.558 158.576C191.319 157.55 192.767 157.334 193.793 158.095C193.809 158.107 193.824 158.118 193.839 158.13Z" fill="#474961"/>
<path d="M191.304 161.21C193.885 163.226 197.579 162.81 199.555 160.281C200.505 159.065 199.183 156.531 199.511 152.772C199.587 151.894 200.197 150.475 201.339 148.515L201.339 148.515C201.422 148.373 201.374 148.192 201.232 148.109C201.163 148.069 201.081 148.058 201.004 148.08C195.075 149.723 191.477 151.356 190.21 152.979C188.234 155.508 188.724 159.193 191.304 161.21Z" fill="#F2F6FB"/>
<path d="M194.109 157.652C194.717 158.126 196.71 156.897 197.001 157.541C197.976 159.697 197.946 162.613 199.546 160.565C200.545 159.286 199.209 156.664 199.597 152.746C199.687 151.828 200.34 150.337 201.554 148.272L201.554 148.272C201.637 148.131 201.589 147.949 201.448 147.866C201.378 147.825 201.294 147.814 201.215 147.837C195.051 149.625 191.301 151.373 189.968 153.08C188.773 154.61 189.732 155.404 191.553 155.654C192.189 155.741 192.62 154.992 193.518 154.819C194.516 154.627 193.518 157.189 194.109 157.652Z" fill="#FAB706"/>
<path d="M136.297 158.145C143.666 160.704 148.334 168.269 146.957 176.269L140.769 211.217L106.532 211.83C104.572 211.478 103.19 210.658 102.385 209.369C101.179 207.436 101.508 204.985 101.672 204.042L107.851 169.486C109.378 160.717 117.646 154.813 126.405 156.202L127.004 153.383C127.072 153.062 127.387 152.858 127.707 152.926L136.406 154.776C136.727 154.844 136.931 155.159 136.863 155.479L136.297 158.145Z" fill="#212A34"/>
<path d="M129.204 143.423C128.581 149.749 128.247 152.944 128.201 153.007C128.154 153.072 130.84 153.652 136.26 154.747L136.741 152.301C136.868 152.348 136.998 152.396 137.132 152.445C139.639 153.409 139.49 153.323 139.669 153.379C141.545 153.851 143.145 153.793 143.441 153.758C145.928 153.537 148.753 148.95 149.943 142.376C150.052 141.84 150.073 141.306 150.123 140.771L150.267 135.46C150.306 134.274 150.048 133.092 149.467 132.064C149.222 131.623 148.977 131.213 148.705 130.891C145.58 126.853 139.961 127.692 138.955 127.829C138.837 127.831 138.719 127.862 138.6 127.865C137.478 128.151 136.467 127.961 135.399 127.95C134.925 127.958 134.546 128.35 134.525 128.825L134.509 136.417C134.492 137.129 132.438 135.505 131.637 135.46C130.212 135.366 128.659 137.587 128.151 139.049C127.585 140.631 128.088 142.223 129.025 143.245C129.084 143.307 129.144 143.366 129.204 143.423ZM148.811 195.917C149.44 195.703 150.068 195.488 150.694 195.272C155.487 193.619 160.203 191.933 165.322 190.06C167.046 189.447 167.786 189.14 169.024 188.648C173.056 187.031 188.231 180.819 188.958 180.241C191.514 179.145 189.836 170.037 189.836 166.71C185.601 168.573 179.778 170.959 172.369 173.868C170.874 174.638 169.796 175.639 169.024 176.473C167.764 176.568 157.689 178.321 148.406 179.874C148.66 179.831 148.914 179.787 149.17 179.744C149.109 177.374 148.672 173.758 146.79 169.831C147.259 171.88 147.338 174.058 146.957 176.269L146.255 180.232C140.825 181.133 135.943 181.911 133.651 182.172C133.521 181.797 132.5 177.371 130.589 168.895L112.919 173.867C113.324 176.303 114.297 180.206 115.838 185.577C118.149 193.634 119.041 199.65 125.086 201.413C126.495 201.825 128.321 201.762 132.376 200.781C136.193 199.858 139.739 198.843 143.149 197.773L140.775 211.178L140.762 211.179L140.769 211.218L173.29 210.766C175.006 210.712 173.006 209.539 167.289 207.247C161.573 204.954 155.746 203.004 149.808 201.398L149.63 195.64C149.357 195.732 149.084 195.825 148.811 195.917ZM109.061 165.638C113.405 167.519 117.611 167.738 121.679 166.295C125.746 164.852 127.813 161.611 127.878 156.573C124.328 155.492 120.599 155.786 116.694 157.455C112.789 159.125 110.244 161.852 109.061 165.638Z" fill="#DB9E75"/>
<path d="M136.282 154.569L133.787 151.007L136.744 152.302L136.282 154.569Z" fill="#482D1F"/>
<path d="M148.275 141.185C148.309 140.826 148.586 140.539 148.941 140.514C149.178 140.497 149.393 140.601 149.511 141.009C149.784 141.941 148.962 143.366 148.541 142.86C148.22 142.526 148.251 141.692 148.275 141.185ZM142.998 141.375C143.032 141.016 143.309 140.729 143.664 140.705C143.901 140.688 144.116 140.792 144.234 141.2C144.507 142.132 143.686 143.556 143.264 143.051C142.943 142.717 142.944 141.884 142.998 141.375Z" fill="#482D1F"/>
<path d="M144.895 147.246C144.683 147.202 144.168 147.059 144.057 146.74C144.053 146.681 144.017 146.594 144.042 146.533C144.148 146.347 144.539 146.409 145.075 146.431C146.028 146.454 146.791 146.311 146.791 146.311C146.791 146.311 146.595 146.919 146.458 147.077C146.195 147.571 145.226 147.312 144.895 147.246Z" fill="#482D1F"/>
<path d="M150.333 138.752C150.625 138.673 150.718 138.309 150.497 138.117C150.214 137.899 149.75 137.634 149.156 137.646C147.94 137.671 146.658 138.474 147.989 138.797C148.837 139.035 149.778 138.88 150.333 138.752ZM144.596 139.154C144.887 139.074 144.981 138.71 144.73 138.52C144.447 138.302 143.983 138.037 143.36 138.051C142.143 138.077 140.864 138.909 142.192 139.203C143.07 139.439 144.011 139.284 144.596 139.154ZM129.222 147.797C130.318 147.063 131.064 145.909 131.457 144.336C130.916 144.183 130.083 143.852 129.407 143.091C128.5 142.068 127.998 140.505 128.565 138.983C129.073 137.521 130.535 136.369 131.96 136.462C132.762 136.508 133.392 136.942 133.482 136.999C134.473 137.723 134.905 138.665 134.905 138.665L135.546 140.292C136.565 139.576 138.616 136.859 141.699 132.141C143.412 131.935 144.735 131.792 145.667 131.712C147.065 131.593 148.566 131.734 149.131 131.507C149.09 131.607 149.05 131.708 149.009 131.809C149.11 131.634 149.161 131.536 149.161 131.536C149.189 131.447 148.707 131.01 148.706 130.951C145.762 127.058 140.342 127.42 139.336 127.556C139.218 127.558 139.1 127.589 138.981 127.562C137.324 127.769 135.931 127.823 134.983 127.869C130.479 128.036 128.72 127.474 126.457 128.64C126.045 128.855 125.076 129.376 124.235 130.429C123.748 131.018 123.383 131.644 123.111 132.277C120.527 132.193 118.692 133.478 117.606 136.132C116.156 139.676 118.379 142.886 121.148 144.198C122.315 147.107 125.516 149.201 128.095 148.364C128.559 148.213 128.934 148.024 129.222 147.797Z" fill="#482D1F"/>
<path d="M146.754 141.539L146.749 141.496L146.753 141.517L146.754 141.539ZM147.325 144.636L147.33 144.669C147.352 144.992 147.152 145.307 146.834 145.383C146.775 145.393 146.743 145.397 146.71 145.402C146.398 145.444 146.174 145.463 145.368 145.519C145.205 145.531 145.063 145.407 145.052 145.244C145.04 145.081 145.164 144.939 145.327 144.928C146.118 144.872 146.336 144.854 146.63 144.814C146.661 144.81 146.691 144.806 146.722 144.801C146.715 144.802 146.737 144.766 146.738 144.722L146.166 141.603L146.161 141.56L146.099 139.811C146.093 139.647 146.22 139.51 146.384 139.504C146.548 139.498 146.685 139.626 146.691 139.789L146.753 141.517L147.325 144.636Z" fill="#482D1F"/>
<path d="M130.278 168.69L130.278 166.3C130.278 166.054 130.477 165.855 130.722 165.855C130.968 165.855 131.167 166.054 131.167 166.3L131.167 168.69C131.167 168.936 130.968 169.135 130.722 169.135C130.477 169.135 130.278 168.936 130.278 168.69Z" fill="#482D1F"/>
<path opacity="0.2" d="M146.8 169.83C147.309 170.868 147.811 172.218 148.305 173.879C148.799 175.541 149.083 177.496 149.158 179.745L146.252 180.22C146.516 178.782 146.699 177.752 146.8 177.13C146.99 175.958 147.197 174.922 147.197 174.11C147.197 172.653 147.065 171.227 146.8 169.83ZM143.148 197.771L149.628 195.639L149.808 201.397C160.391 204.569 167.804 207.207 172.049 209.311C172.904 209.735 173.434 210.038 173.641 210.221C173.728 210.302 173.797 210.372 173.847 210.431C173.968 210.576 173.847 210.726 173.461 210.753C173.204 210.771 162.304 210.916 140.762 211.188L143.148 197.771Z" fill="#8C2A00"/>
</svg>
